<svg width="80" height="81" viewBox="0 0 80 81" fill="none" xmlns="http://www.w3.org/2000/svg">
<path d="M18.2813 13.7234C32.7081 13.7234 47.1365 13.7234 61.5633 13.7234C61.6604 13.7609 61.7543 13.8187 61.853 13.8312C65.3834 14.2795 67.7302 16.221 69.0969 19.4558C70.6813 23.2045 72.3157 26.9313 73.9032 30.6784C74.1083 31.161 74.3573 31.3438 74.8864 31.3157C75.7694 31.2688 76.6571 31.2938 77.5417 31.3063C78.9601 31.3266 79.9761 32.2763 79.9996 33.5883C80.0231 34.9128 78.9773 35.9375 77.5448 35.9718C76.7636 35.9906 75.9808 36.0109 75.2027 35.964C74.6516 35.9312 74.459 36.1171 74.3338 36.6622C72.441 44.9218 70.5122 53.1736 68.6069 61.4316C67.5877 65.8457 64.3235 68.501 59.788 68.5056C46.6136 68.5166 33.4392 68.515 20.2649 68.5056C15.6777 68.5025 12.4198 65.8628 11.3912 61.4019C9.48742 53.1439 7.55863 44.8921 5.66271 36.6325C5.54685 36.128 5.37151 35.9297 4.85017 35.964C4.22864 36.0046 3.59927 35.9406 2.97617 35.9796C1.52801 36.0718 0.510379 35.5095 0 34.124V33.0338C0.585527 31.7046 1.60316 31.1579 3.04662 31.2907C3.69164 31.35 4.35075 31.2579 4.99577 31.3125C5.61104 31.3656 5.89911 31.1517 6.14334 30.5706C7.76998 26.7032 9.42167 22.8468 11.1078 19.006C12.3039 16.2804 14.4049 14.6059 17.3153 13.9437C17.6378 13.8703 17.9603 13.7937 18.2813 13.7188V13.7234ZM10.3485 36.0078C10.3767 36.1811 10.3829 36.2577 10.4002 36.3311C12.2679 44.411 14.1278 52.4941 16.0096 60.571C16.52 62.7608 17.9666 63.8339 20.3165 63.8339C33.4392 63.837 46.5635 63.837 59.6862 63.8339C62.1082 63.8339 63.5078 62.6983 64.051 60.3398C65.4381 54.3294 66.8331 48.3206 68.2233 42.3118C68.7055 40.225 69.1815 38.1383 69.6715 36.0078H10.3485ZM10.9826 31.2454H69.0312C68.9216 30.9627 68.8449 30.7456 68.7541 30.5347C67.403 27.392 66.0378 24.2557 64.7039 21.1052C63.9352 19.2918 62.5731 18.4327 60.6256 18.4327C46.8829 18.4327 33.1402 18.4343 19.3976 18.4327C17.414 18.4327 16.0488 19.309 15.2722 21.1536C13.954 24.2822 12.5935 27.392 11.2534 30.5113C11.1532 30.7424 11.0781 30.9845 10.9826 31.2454Z" fill="#40B93C"/>
</svg>
