<svg width="80" height="81" viewBox="0 0 80 81" fill="none" xmlns="http://www.w3.org/2000/svg">
<g clip-path="url(#clip0_28_261)">
<path d="M5 2.44864C5.06716 2.34534 5.14214 2.24829 5.19837 2.13873C5.74816 1.08062 6.79308 0.54061 7.82395 0.786354C8.9454 1.05401 9.66544 1.95872 9.67013 3.17492C9.68263 5.95949 9.67481 8.74563 9.67481 11.5318C9.67481 13.9 9.67481 16.2698 9.67481 18.638C9.67481 18.8931 9.67481 19.1467 9.67481 19.4378H14.3496C14.3496 19.1686 14.3496 18.8947 14.3496 18.6208C14.3496 13.493 14.3418 8.36371 14.3543 3.23596C14.359 1.37645 16.0677 0.205648 17.6578 0.961661C18.6277 1.42341 19.0291 2.24047 19.0276 3.30327C19.0197 8.37936 19.0244 13.4555 19.0244 18.5315C19.0244 18.8133 19.0244 19.0966 19.0244 19.4284H23.6993C23.6993 19.1295 23.6993 18.8509 23.6993 18.5722C23.6993 13.4695 23.693 8.3684 23.7024 3.2657C23.7055 1.43123 25.3236 0.249474 26.9106 0.917834C27.8336 1.30602 28.3616 2.04012 28.3631 3.04031C28.3741 9.5486 28.4615 16.0585 28.3194 22.5636C28.2101 27.5849 24.5114 31.8596 19.4836 33.2026C19.3603 33.2355 19.2353 33.2621 19.0244 33.3137V34.3077C19.0244 48.7298 19.0104 63.1504 19.0463 77.5726C19.0494 79.0236 18.6574 80.0942 17.311 80.7188H16.0646C14.7214 80.0927 14.3246 79.0252 14.3293 77.5726C14.3652 63.1301 14.3512 48.6876 14.3512 34.245V33.3904C14.2497 33.3122 14.2309 33.2902 14.2091 33.2824C14.0357 33.2292 13.8607 33.1791 13.6874 33.129C9.83256 32.0224 7.17106 29.59 5.73722 25.8459C5.39673 24.9584 5.24053 23.9989 5 23.0723C5 16.1993 5 9.32477 5 2.45177V2.44864ZM10.1981 24.1915C10.6791 26.6724 13.7264 28.8481 16.6878 28.8496C19.657 28.8496 22.684 26.6912 23.1807 24.1915H10.1981Z" fill="#40B93C"/>
<path d="M44.1166 80.7141C42.7671 80.0911 42.3751 79.0189 42.3813 77.5679C42.4235 67.8321 42.4032 58.0963 42.4032 48.3604V47.6028C40.9522 46.9032 39.5168 46.3992 38.286 45.5837C34.9169 43.3501 33.1285 40.1178 33.077 36.0717C32.9989 29.9297 32.8802 23.7782 33.1035 17.644C33.3722 10.2138 36.974 4.67912 43.484 1.0994C45.2958 0.102341 47.0749 1.22149 47.0764 3.29857C47.0811 28.2361 47.0764 53.1736 47.0889 78.1126C47.0889 79.4086 46.4251 80.1709 45.3646 80.7141H44.1166ZM42.3313 42.4V7.57326C39.4605 10.3578 37.8471 13.6386 37.7721 17.4907C37.6487 23.7344 37.7018 29.9844 37.7502 36.2313C37.7721 39.0175 39.8682 41.7363 42.3313 42.4Z" fill="#40B93C"/>
<path d="M62.8174 80.7141C61.4679 80.0911 61.0774 79.0189 61.0821 77.5679C61.118 63.1176 61.104 48.6688 61.104 34.2184C61.104 33.907 61.104 33.5955 61.104 33.248C57.3632 32.0709 55.0219 29.4022 53.6099 25.9195C52.8555 24.06 52.2932 22.0706 51.9887 20.0874C51.303 15.6249 52.0386 11.3283 54.0816 7.28369C54.9235 5.61827 56.0153 4.13441 57.4647 2.94639C61.7022 -0.525322 67.3392 0.116429 70.9503 4.48346C73.276 7.29464 74.4381 10.6067 74.9254 14.1692C75.483 18.2561 74.941 22.2177 73.2713 25.9946C71.7625 29.41 69.493 32.0772 65.7788 33.2495C65.7788 33.5939 65.7788 33.9054 65.7788 34.2169C65.7788 48.6672 65.7648 63.116 65.7991 77.5663C65.8022 79.0173 65.4102 80.0895 64.0638 80.7156H62.8174V80.7141ZM56.3948 18.0494C56.5635 18.9479 56.7962 20.7276 57.2461 22.4509C57.7303 24.3057 58.6502 25.9712 60.0466 27.3282C62.113 29.3364 64.6995 29.363 66.7706 27.3721C67.2361 26.926 67.6609 26.4204 68.0233 25.8866C69.504 23.7 70.185 21.2332 70.3802 18.6317C70.6551 14.9643 70.0725 11.4629 68.0014 8.34649C65.4039 4.43964 61.4992 4.45059 58.8736 8.34649C57.0836 11.0058 56.487 14.008 56.3964 18.0479L56.3948 18.0494Z" fill="#40B93C"/>
</g>
<defs>
<clipPath id="clip0_28_261">
<rect width="80" height="80" fill="white" transform="translate(0 0.71875)"/>
</clipPath>
</defs>
</svg>
