<svg width="80" height="81" viewBox="0 0 80 81" fill="none" xmlns="http://www.w3.org/2000/svg">
<g clip-path="url(#clip0_28_262)">
<path d="M64.5008 80.7188H15.6388C15.4481 80.6545 15.2558 80.5888 15.0636 80.5277C13.0434 79.8826 11.7442 78.5359 11.214 76.4563C11.1132 76.0617 11.0698 75.6515 11 75.249C11 56.4424 11 37.6359 11 18.8293C11.0403 18.6288 11.0946 18.4284 11.1209 18.2248C11.4279 15.8353 12.7535 14.285 14.9845 13.5381C27.1395 9.47454 39.2992 5.42353 51.462 1.38192C52.3132 1.09849 53.1907 0.791568 54.0713 0.732063C57.2465 0.515967 59.7054 2.95409 59.7767 6.33489C59.8171 8.20772 59.7845 10.0837 59.786 11.9581C59.786 13.1247 59.786 14.2913 59.786 15.5471C60.1597 15.5471 60.462 15.544 60.7643 15.5471C61.9488 15.5581 63.1442 15.4751 64.3147 15.6035C66.7953 15.8775 69.0915 17.9978 69.0822 21.5367C69.0388 39.266 69.0636 56.9952 69.0605 74.7244C69.0605 75.0627 69.0558 75.4025 69.0186 75.7376C68.755 78.0551 67.5209 79.6054 65.3674 80.4197C65.0822 80.5277 64.7892 80.6185 64.5008 80.7172V80.7188ZM64.4217 48.1322C64.4217 39.3286 64.4217 30.5266 64.4217 21.7231C64.4217 20.3467 64.3147 20.237 62.9892 20.237C47.7085 20.237 32.4279 20.237 17.1473 20.237C15.8388 20.237 15.7178 20.3545 15.7178 21.6464C15.7178 39.3051 15.7178 56.9639 15.7178 74.6211C15.7178 75.913 15.8403 76.0304 17.1488 76.0304C32.4031 76.0304 47.6589 76.0304 62.9132 76.0304C64.3411 76.0304 64.4217 75.9474 64.4217 74.4645C64.4217 65.6876 64.4217 56.9107 64.4217 48.1337V48.1322ZM55.1442 15.5127C55.1442 12.5124 55.1473 9.59981 55.1442 6.68565C55.1426 5.43136 54.8109 5.19491 53.6357 5.58638C44.8977 8.49898 36.1581 11.4116 27.4202 14.3273C26.3457 14.6859 25.276 15.057 24.2047 15.4219C24.2155 15.4516 24.2279 15.4814 24.2388 15.5127H55.1457H55.1442Z" fill="#40B93C"/>
<path d="M37.7054 29.9786C37.9147 27.5091 38.5736 26.5414 40.0574 26.5304C41.5643 26.5195 42.2713 27.5436 42.4264 30.0161C43.0202 30.1665 43.645 30.2839 44.2434 30.4812C49.8822 32.3259 53.3783 36.1796 54.7318 42.0048C54.8388 42.4636 54.9628 42.6468 55.4558 42.675C56.9364 42.7595 57.893 43.7586 57.8481 45.0833C57.8016 46.4159 56.7876 47.3382 55.3008 47.3398C45.155 47.3461 35.0078 47.3461 24.862 47.3398C23.3659 47.3398 22.3504 46.4378 22.2899 45.11C22.2295 43.7633 23.1923 42.8143 24.7302 42.639C24.9566 42.6139 25.3008 42.3743 25.3457 42.177C26.876 35.4499 31.1178 31.5554 37.7039 29.9801L37.7054 29.9786ZM50.0496 42.6029C49.5333 39.2488 45.9612 34.634 40.1938 34.5776C35.3706 34.5307 30.8078 38.1119 30.0791 42.6029H50.0496Z" fill="#40B93C"/>
<path d="M39.9922 67.7468C35.1209 67.7468 30.2512 67.753 25.3798 67.7436C23.5519 67.7405 22.3891 66.1276 23.0527 64.5288C23.4667 63.5329 24.2465 63.0616 25.3023 63.06C27.8791 63.0537 30.4558 63.0584 33.0341 63.0584C40.276 63.0584 47.5178 63.0537 54.7581 63.0616C56.7209 63.0631 57.8729 64.9156 56.9504 66.5551C56.4512 67.4398 55.6574 67.753 54.6822 67.7515C49.786 67.7421 44.8899 67.7468 39.9938 67.7468H39.9922Z" fill="#40B93C"/>
<path d="M31.0233 58.3701C29.2481 58.3701 27.4744 58.3779 25.6992 58.3685C24.2124 58.3607 23.1876 57.3757 23.2031 55.9946C23.2171 54.6511 24.2372 53.688 25.6853 53.6849C29.2868 53.6771 32.8868 53.6755 36.4884 53.6849C37.9085 53.6896 38.9612 54.698 38.9659 56.0181C38.9705 57.3381 37.9163 58.356 36.5023 58.3654C34.676 58.3779 32.8496 58.3685 31.0233 58.3685V58.3701Z" fill="#40B93C"/>
</g>
<defs>
<clipPath id="clip0_28_262">
<rect width="80" height="80" fill="white" transform="translate(0 0.71875)"/>
</clipPath>
</defs>
</svg>
