<svg width="80" height="81" viewBox="0 0 80 81" fill="none" xmlns="http://www.w3.org/2000/svg">
<g clip-path="url(#clip0_28_260)">
<path d="M7 74.4123C7 64.0577 7 53.7016 7 43.3471C7.04695 43.1479 7.10016 42.9487 7.14241 42.748C7.54773 40.8308 7.77308 38.8529 8.39122 37.0058C10.374 31.0722 12.4475 25.1682 14.5993 19.2938C15.4131 17.0716 15.9201 14.8681 15.7667 12.4966C15.6666 10.9498 15.7417 9.39208 15.7495 7.83905C15.7652 4.26771 18.3113 1.72497 21.9044 1.72342C34.2407 1.71719 46.5771 1.71719 58.9134 1.72342C62.555 1.72497 65.0871 4.25526 65.0996 7.88574C65.1074 10.3444 65.0918 12.8031 65.1106 15.2618C65.1137 15.6913 65.1778 16.1411 65.3187 16.5457C67.555 22.9398 69.796 29.3309 72.0667 35.7126C73.0714 38.537 73.8037 41.4237 73.8178 44.4208C73.8648 54.1529 73.8491 63.885 73.835 73.6171C73.8319 75.3911 73.1621 76.9395 71.9759 78.2715C70.8022 79.5896 69.2764 80.2385 67.6004 80.6229H13.2472C11.892 80.2789 10.5946 79.8292 9.50545 78.8909C8.1158 77.6926 7.3881 76.1505 7 74.4092V74.4123ZM59.8289 18.4955C59.5488 18.4955 59.3939 18.4955 59.2389 18.4955C46.2031 18.4955 33.1656 18.5002 20.1298 18.4784C19.5476 18.4784 19.388 18.732 19.2299 19.188C17.1329 25.19 15.0437 31.1967 12.9029 37.1832C11.8904 40.0169 11.3583 42.9067 11.3662 45.9178C11.3881 54.9496 11.374 63.9815 11.374 73.0133C11.374 75.2215 12.446 76.2766 14.6869 76.2766C26.9951 76.2766 39.3033 76.2766 51.6115 76.2766H52.3877C52.2437 75.2526 52.0011 74.3127 51.998 73.3728C51.9698 63.9535 51.9777 54.5326 51.987 45.1133C51.9902 42.7215 52.2781 40.3515 53.0215 38.0764C54.1513 34.6124 55.3798 31.1812 56.5786 27.739C57.6396 24.6921 58.7194 21.6514 59.8305 18.4939L59.8289 18.4955ZM62.9384 22.9881C62.7866 23.3273 62.7162 23.4596 62.6661 23.6012C60.9619 28.4532 59.253 33.3037 57.5582 38.1573C56.7413 40.4978 56.3548 42.9145 56.3532 45.3903C56.3516 54.6524 56.3516 63.9146 56.3532 73.1767C56.3532 75.1344 57.4846 76.2703 59.4377 76.275C61.7522 76.2812 64.0683 76.2812 66.3828 76.275C68.3327 76.2703 69.4689 75.1328 69.4689 73.1767C69.472 63.9146 69.4986 54.6524 69.4438 45.3903C69.4345 43.7237 69.303 41.9979 68.8507 40.406C67.9196 37.1303 66.749 33.9215 65.6473 30.6956C64.7897 28.184 63.8868 25.6864 62.9369 22.9881H62.9384ZM20.1235 14.0916H60.7256C60.7256 12.0982 60.7256 10.1593 60.7256 8.22186C60.7256 6.52878 60.2593 6.06972 58.5378 6.06972C46.4613 6.06972 34.3863 6.06972 22.3097 6.06972C22.1016 6.06972 21.8934 6.06194 21.6853 6.07439C20.7839 6.13041 20.1438 6.71085 20.1329 7.59785C20.1047 9.74377 20.1235 11.8897 20.1235 14.0916Z" fill="#40B93C"/>
</g>
<defs>
<clipPath id="clip0_28_260">
<rect width="80" height="80" fill="white" transform="translate(0 0.71875)"/>
</clipPath>
</defs>
</svg>
