<svg width="25" height="25" viewBox="0 0 25 25" fill="none" xmlns="http://www.w3.org/2000/svg">
<path d="M18.8569 7.71903H18.5069C18.7352 7.2518 18.8548 6.73902 18.8569 6.21903C18.86 5.52236 18.6544 4.84072 18.2667 4.26186C17.8791 3.683 17.327 3.23342 16.6817 2.97097C16.0363 2.70852 15.3272 2.64523 14.6456 2.78924C13.9639 2.93325 13.341 3.27797 12.8569 3.77903C12.3729 3.27797 11.7499 2.93325 11.0683 2.78924C10.3867 2.64523 9.67755 2.70852 9.03219 2.97097C8.38683 3.23342 7.83479 3.683 7.44712 4.26186C7.05946 4.84072 6.85391 5.52236 6.85693 6.21903C6.85907 6.73902 6.97872 7.2518 7.20693 7.71903H6.85693C6.06128 7.71903 5.29822 8.0351 4.73561 8.59771C4.173 9.16032 3.85693 9.92338 3.85693 10.719V12.719C3.85693 12.9842 3.96229 13.2386 4.14983 13.4261C4.33736 13.6137 4.59172 13.719 4.85693 13.719H5.85693V19.719C5.85693 20.5147 6.173 21.2777 6.73561 21.8404C7.29822 22.403 8.06128 22.719 8.85693 22.719H16.8569C17.6526 22.719 18.4156 22.403 18.9783 21.8404C19.5409 21.2777 19.8569 20.5147 19.8569 19.719V13.719H20.8569C21.1222 13.719 21.3765 13.6137 21.564 13.4261C21.7516 13.2386 21.8569 12.9842 21.8569 12.719V10.719C21.8569 9.92338 21.5409 9.16032 20.9783 8.59771C20.4156 8.0351 19.6526 7.71903 18.8569 7.71903ZM11.8569 20.719H8.85693C8.59172 20.719 8.33736 20.6137 8.14983 20.4261C7.96229 20.2386 7.85693 19.9842 7.85693 19.719V13.719H11.8569V20.719ZM11.8569 11.719H5.85693V10.719C5.85693 10.4538 5.96229 10.1995 6.14983 10.0119C6.33736 9.82439 6.59172 9.71903 6.85693 9.71903H11.8569V11.719ZM11.8569 7.71903H10.3569C10.0603 7.71903 9.77025 7.63106 9.52358 7.46624C9.2769 7.30141 9.08465 7.06715 8.97111 6.79306C8.85758 6.51897 8.82788 6.21737 8.88576 5.9264C8.94363 5.63542 9.08649 5.36815 9.29627 5.15837C9.50605 4.94859 9.77333 4.80573 10.0643 4.74785C10.3553 4.68998 10.6569 4.71968 10.931 4.83321C11.205 4.94674 11.4393 5.139 11.6041 5.38568C11.769 5.63235 11.8569 5.92236 11.8569 6.21903V7.71903ZM13.8569 6.21903C13.8569 5.92236 13.9449 5.63235 14.1097 5.38568C14.2746 5.139 14.5088 4.94674 14.7829 4.83321C15.057 4.71968 15.3586 4.68998 15.6496 4.74785C15.9405 4.80573 16.2078 4.94859 16.4176 5.15837C16.6274 5.36815 16.7702 5.63542 16.8281 5.9264C16.886 6.21737 16.8563 6.51897 16.7428 6.79306C16.6292 7.06715 16.437 7.30141 16.1903 7.46624C15.9436 7.63106 15.6536 7.71903 15.3569 7.71903H13.8569V6.21903ZM17.8569 19.719C17.8569 19.9842 17.7516 20.2386 17.564 20.4261C17.3765 20.6137 17.1222 20.719 16.8569 20.719H13.8569V13.719H17.8569V19.719ZM19.8569 11.719H13.8569V9.71903H18.8569C19.1222 9.71903 19.3765 9.82439 19.564 10.0119C19.7516 10.1995 19.8569 10.4538 19.8569 10.719V11.719Z" fill="white"/>
</svg>
