<svg width="25" height="25" viewBox="0 0 25 25" fill="none" xmlns="http://www.w3.org/2000/svg">
<path d="M16.2813 13.4284C17.2617 12.657 17.9773 11.5993 18.3285 10.4023C18.6798 9.20535 18.6492 7.92865 18.2411 6.74985C17.8329 5.57106 17.0675 4.54878 16.0514 3.82524C15.0352 3.10171 13.8187 2.71289 12.5713 2.71289C11.3238 2.71289 10.1074 3.10171 9.09122 3.82524C8.07503 4.54878 7.30963 5.57106 6.9015 6.74985C6.49337 7.92865 6.4628 9.20535 6.81405 10.4023C7.1653 11.5993 7.88089 12.657 8.86129 13.4284C7.18136 14.1014 5.71557 15.2177 4.62018 16.6583C3.52478 18.0989 2.84085 19.8097 2.64129 21.6084C2.62684 21.7397 2.6384 21.8726 2.67531 21.9994C2.71222 22.1263 2.77375 22.2446 2.8564 22.3477C3.0233 22.5559 3.26607 22.6892 3.53129 22.7184C3.7965 22.7476 4.06245 22.6702 4.27061 22.5033C4.47878 22.3364 4.61211 22.0936 4.64129 21.8284C4.86087 19.8736 5.79297 18.0682 7.2595 16.7572C8.72604 15.4462 10.6242 14.7214 12.5913 14.7214C14.5584 14.7214 16.4565 15.4462 17.9231 16.7572C19.3896 18.0682 20.3217 19.8736 20.5413 21.8284C20.5685 22.0741 20.6857 22.301 20.8704 22.4654C21.0551 22.6298 21.2941 22.7199 21.5413 22.7184H21.6513C21.9134 22.6882 22.153 22.5557 22.3178 22.3496C22.4827 22.1436 22.5594 21.8807 22.5313 21.6184C22.3308 19.8146 21.6432 18.0994 20.5421 16.6566C19.4411 15.2138 17.9682 14.0979 16.2813 13.4284ZM12.5713 12.7184C11.7802 12.7184 11.0068 12.4838 10.349 12.0443C9.69121 11.6047 9.17852 10.98 8.87577 10.2491C8.57302 9.51822 8.4938 8.71395 8.64814 7.93803C8.80248 7.1621 9.18345 6.44937 9.74286 5.88996C10.3023 5.33055 11.015 4.94959 11.7909 4.79525C12.5668 4.6409 13.3711 4.72012 14.102 5.02287C14.8329 5.32562 15.4576 5.83831 15.8972 6.49611C16.3367 7.1539 16.5713 7.92726 16.5713 8.71839C16.5713 9.77925 16.1499 10.7967 15.3997 11.5468C14.6496 12.297 13.6322 12.7184 12.5713 12.7184Z" fill="black"/>
</svg>
