<svg width="25" height="25" viewBox="0 0 25 25" fill="none" xmlns="http://www.w3.org/2000/svg">
<path d="M15.8154 14.849C15.7225 14.7552 15.6119 14.6808 15.49 14.6301C15.3682 14.5793 15.2375 14.5532 15.1054 14.5532C14.9734 14.5532 14.8427 14.5793 14.7209 14.6301C14.599 14.6808 14.4884 14.7552 14.3954 14.849C14.2092 15.0363 14.1047 15.2898 14.1047 15.554C14.1047 15.8181 14.2092 16.0716 14.3954 16.259L20.5754 22.439C20.6684 22.5327 20.779 22.6071 20.9009 22.6578C21.0227 22.7086 21.1534 22.7348 21.2854 22.7348C21.4175 22.7348 21.5482 22.7086 21.67 22.6578C21.7919 22.6071 21.9025 22.5327 21.9954 22.439C22.1817 22.2516 22.2862 21.9981 22.2862 21.734C22.2862 21.4698 22.1817 21.2163 21.9954 21.029L15.8154 14.849ZM17.0454 12.359C17.8408 12.3583 18.6034 12.0417 19.1654 11.479L21.9954 8.64896C22.1817 8.4616 22.2862 8.20814 22.2862 7.94396C22.2862 7.67977 22.1817 7.42632 21.9954 7.23896C21.9025 7.14523 21.7919 7.07084 21.67 7.02007C21.5482 6.9693 21.4175 6.94316 21.2854 6.94316C21.1534 6.94316 21.0227 6.9693 20.9009 7.02007C20.779 7.07084 20.6684 7.14523 20.5754 7.23896L17.7454 10.069C17.5581 10.2552 17.3046 10.3598 17.0404 10.3598C16.7763 10.3598 16.5228 10.2552 16.3354 10.069L19.8754 6.52896C20.0617 6.3416 20.1662 6.08814 20.1662 5.82396C20.1662 5.55977 20.0617 5.30632 19.8754 5.11896C19.7825 5.02523 19.6719 4.95083 19.55 4.90007C19.4282 4.8493 19.2975 4.82316 19.1654 4.82316C19.0334 4.82316 18.9027 4.8493 18.7809 4.90007C18.659 4.95083 18.5484 5.02523 18.4554 5.11896L14.9254 8.64896C14.7392 8.4616 14.6347 8.20814 14.6347 7.94396C14.6347 7.67977 14.7392 7.42632 14.9254 7.23896L17.7454 4.40896C17.8501 4.31931 17.9351 4.20899 17.9952 4.08493C18.0552 3.96086 18.0889 3.82573 18.0942 3.68801C18.0996 3.55029 18.0764 3.41296 18.0261 3.28463C17.9758 3.15631 17.8995 3.03976 17.8021 2.94231C17.7046 2.84485 17.5881 2.76859 17.4598 2.71832C17.3314 2.66805 17.1941 2.64484 17.0564 2.65016C16.9187 2.65548 16.7835 2.68921 16.6595 2.74923C16.5354 2.80926 16.4251 2.89428 16.3354 2.99896L13.5054 5.82896C12.9436 6.39146 12.6281 7.15396 12.6281 7.94896C12.6281 8.74396 12.9436 9.50646 13.5054 10.069L12.2854 11.309L10.7254 9.76896C11.1682 8.96991 11.3356 8.04735 11.2019 7.14369C11.0681 6.24002 10.6407 5.4055 9.98544 4.76896C8.54544 3.32896 4.81544 1.71896 3.05544 3.50896C1.29544 5.29896 2.88544 8.98896 4.28544 10.439C5.06727 11.2236 6.11843 11.6812 7.22544 11.719H7.36544C8.04156 11.7093 8.70343 11.5232 9.28544 11.179L10.8554 12.719L2.57544 20.999C2.48286 21.0922 2.40955 21.2028 2.3597 21.3243C2.30984 21.4459 2.28442 21.5761 2.28489 21.7075C2.28535 21.8389 2.31169 21.9689 2.3624 22.0901C2.41311 22.2113 2.4872 22.3214 2.58044 22.414C2.67368 22.5065 2.78424 22.5798 2.90581 22.6297C3.02738 22.6796 3.15758 22.705 3.28898 22.7045C3.42037 22.7041 3.55039 22.6777 3.67161 22.627C3.79282 22.5763 3.90286 22.5022 3.99544 22.409L12.9954 13.409L14.9154 11.489C15.1958 11.767 15.5282 11.987 15.8937 12.1363C16.2592 12.2856 16.6506 12.3612 17.0454 12.359ZM8.71544 9.15896C8.5281 9.34519 8.30452 9.49099 8.05854 9.58732C7.81257 9.68364 7.54944 9.72845 7.28544 9.71896C6.70085 9.69378 6.1488 9.44285 5.74544 9.01896C4.66544 7.93896 3.90544 5.48896 4.47544 4.91896C4.66477 4.77614 4.89869 4.70526 5.13544 4.71896C6.41174 4.82068 7.61978 5.33691 8.57544 6.18896C8.98372 6.56668 9.2272 7.08972 9.25339 7.6453C9.27958 8.20088 9.08638 8.74451 8.71544 9.15896Z" fill="black"/>
</svg>
