<svg width="25" height="25" viewBox="0 0 25 25" fill="none" xmlns="http://www.w3.org/2000/svg">
<path d="M7.71436 15.7188H10.7144C10.9796 15.7188 11.2339 15.6134 11.4215 15.4259C11.609 15.2383 11.7144 14.984 11.7144 14.7188C11.7144 14.4535 11.609 14.1992 11.4215 14.0116C11.2339 13.8241 10.9796 13.7188 10.7144 13.7188H7.71436C7.44914 13.7188 7.19479 13.8241 7.00725 14.0116C6.81971 14.1992 6.71436 14.4535 6.71436 14.7188C6.71436 14.984 6.81971 15.2383 7.00725 15.4259C7.19479 15.6134 7.44914 15.7188 7.71436 15.7188ZM19.7144 5.71875H5.71436C4.91871 5.71875 4.15564 6.03482 3.59304 6.59743C3.03043 7.16004 2.71436 7.9231 2.71436 8.71875V17.7188C2.71436 18.5144 3.03043 19.2775 3.59304 19.8401C4.15564 20.4027 4.91871 20.7188 5.71436 20.7188H19.7144C20.51 20.7188 21.2731 20.4027 21.8357 19.8401C22.3983 19.2775 22.7144 18.5144 22.7144 17.7188V8.71875C22.7144 7.9231 22.3983 7.16004 21.8357 6.59743C21.2731 6.03482 20.51 5.71875 19.7144 5.71875ZM20.7144 17.7188C20.7144 17.984 20.609 18.2383 20.4215 18.4259C20.2339 18.6134 19.9796 18.7188 19.7144 18.7188H5.71436C5.44914 18.7188 5.19479 18.6134 5.00725 18.4259C4.81971 18.2383 4.71436 17.984 4.71436 17.7188V11.7188H20.7144V17.7188ZM20.7144 9.71875H4.71436V8.71875C4.71436 8.45353 4.81971 8.19918 5.00725 8.01164C5.19479 7.82411 5.44914 7.71875 5.71436 7.71875H19.7144C19.9796 7.71875 20.2339 7.82411 20.4215 8.01164C20.609 8.19918 20.7144 8.45353 20.7144 8.71875V9.71875Z" fill="black"/>
</svg>
