<svg width="24" height="25" viewBox="0 0 24 25" fill="none" xmlns="http://www.w3.org/2000/svg">
<path d="M10 8.71875H16C16.2652 8.71875 16.5196 8.61339 16.7071 8.42586C16.8946 8.23832 17 7.98397 17 7.71875C17 7.45353 16.8946 7.19918 16.7071 7.01164C16.5196 6.82411 16.2652 6.71875 16 6.71875H10C9.73478 6.71875 9.48043 6.82411 9.29289 7.01164C9.10536 7.19918 9 7.45353 9 7.71875C9 7.98397 9.10536 8.23832 9.29289 8.42586C9.48043 8.61339 9.73478 8.71875 10 8.71875ZM8 12.7188H16C16.2652 12.7188 16.5196 12.6134 16.7071 12.4259C16.8946 12.2383 17 11.984 17 11.7188C17 11.4535 16.8946 11.1992 16.7071 11.0116C16.5196 10.8241 16.2652 10.7188 16 10.7188H8C7.73478 10.7188 7.48043 10.8241 7.29289 11.0116C7.10536 11.1992 7 11.4535 7 11.7188C7 11.984 7.10536 12.2383 7.29289 12.4259C7.48043 12.6134 7.73478 12.7188 8 12.7188ZM8 16.7188H16C16.2652 16.7188 16.5196 16.6134 16.7071 16.4259C16.8946 16.2383 17 15.984 17 15.7188C17 15.4535 16.8946 15.1992 16.7071 15.0116C16.5196 14.8241 16.2652 14.7188 16 14.7188H8C7.73478 14.7188 7.48043 14.8241 7.29289 15.0116C7.10536 15.1992 7 15.4535 7 15.7188C7 15.984 7.10536 16.2383 7.29289 16.4259C7.48043 16.6134 7.73478 16.7188 8 16.7188ZM20 2.71875H4C3.73478 2.71875 3.48043 2.82411 3.29289 3.01164C3.10536 3.19918 3 3.45353 3 3.71875V21.7188C3 21.9045 3.05171 22.0865 3.14935 22.2445C3.24698 22.4025 3.38668 22.5301 3.55279 22.6132C3.71889 22.6962 3.90484 22.7314 4.08981 22.7147C4.27477 22.698 4.45143 22.6302 4.6 22.5187L6.67 20.9688L8.73 22.5187C8.9031 22.6486 9.11363 22.7188 9.33 22.7188C9.54637 22.7188 9.7569 22.6486 9.93 22.5187L12 20.9688L14.07 22.5187C14.2431 22.6486 14.4536 22.7188 14.67 22.7188C14.8864 22.7188 15.0969 22.6486 15.27 22.5187L17.33 20.9688L19.4 22.5187C19.5493 22.63 19.7267 22.6974 19.9122 22.7133C20.0977 22.7292 20.284 22.693 20.45 22.6087C20.6149 22.5257 20.7536 22.3985 20.8507 22.2414C20.9478 22.0843 20.9994 21.9034 21 21.7188V3.71875C21 3.45353 20.8946 3.19918 20.7071 3.01164C20.5196 2.82411 20.2652 2.71875 20 2.71875ZM19 19.7188L17.93 18.9188C17.7569 18.7889 17.5464 18.7188 17.33 18.7188C17.1136 18.7188 16.9031 18.7889 16.73 18.9188L14.67 20.4688L12.6 18.9188C12.4269 18.7889 12.2164 18.7188 12 18.7188C11.7836 18.7188 11.5731 18.7889 11.4 18.9188L9.33 20.4688L7.27 18.9188C7.0969 18.7889 6.88637 18.7188 6.67 18.7188C6.45363 18.7188 6.2431 18.7889 6.07 18.9188L5 19.7188V4.71875H19V19.7188Z" fill="black"/>
</svg>
