<svg width="25" height="25" viewBox="0 0 25 25" fill="none" xmlns="http://www.w3.org/2000/svg">
<path d="M12.4282 2.71875C10.3065 2.71875 8.27166 3.5616 6.77137 5.0619C5.27108 6.56219 4.42822 8.59702 4.42822 10.7188C4.42822 16.1187 11.4782 22.2188 11.7782 22.4788C11.9594 22.6337 12.1899 22.7188 12.4282 22.7188C12.6666 22.7188 12.8971 22.6337 13.0782 22.4788C13.4282 22.2188 20.4282 16.1187 20.4282 10.7188C20.4282 8.59702 19.5854 6.56219 18.0851 5.0619C16.5848 3.5616 14.55 2.71875 12.4282 2.71875ZM12.4282 20.3687C10.2982 18.3687 6.42822 14.0588 6.42822 10.7188C6.42822 9.12745 7.06036 7.60133 8.18558 6.47611C9.3108 5.35089 10.8369 4.71875 12.4282 4.71875C14.0195 4.71875 15.5456 5.35089 16.6709 6.47611C17.7961 7.60133 18.4282 9.12745 18.4282 10.7188C18.4282 14.0588 14.5582 18.3787 12.4282 20.3687ZM12.4282 6.71875C11.6371 6.71875 10.8637 6.95335 10.2059 7.39287C9.54815 7.8324 9.03545 8.45711 8.7327 9.18802C8.42995 9.91892 8.35074 10.7232 8.50508 11.4991C8.65942 12.275 9.04039 12.9878 9.5998 13.5472C10.1592 14.1066 10.8719 14.4876 11.6479 14.6419C12.4238 14.7962 13.2281 14.717 13.959 14.4143C14.6899 14.1115 15.3146 13.5988 15.7541 12.941C16.1936 12.2832 16.4282 11.5099 16.4282 10.7188C16.4282 9.65788 16.0068 8.64047 15.2566 7.89032C14.5065 7.14018 13.4891 6.71875 12.4282 6.71875ZM12.4282 12.7188C12.0327 12.7188 11.646 12.6015 11.3171 12.3817C10.9882 12.1619 10.7318 11.8496 10.5805 11.4841C10.4291 11.1187 10.3895 10.7165 10.4667 10.3286C10.5438 9.94061 10.7343 9.58424 11.014 9.30454C11.2937 9.02483 11.6501 8.83435 12.038 8.75718C12.426 8.68001 12.8281 8.71962 13.1936 8.87099C13.559 9.02237 13.8714 9.27871 14.0912 9.60761C14.3109 9.93651 14.4282 10.3232 14.4282 10.7188C14.4282 11.2492 14.2175 11.7579 13.8424 12.133C13.4674 12.508 12.9587 12.7188 12.4282 12.7188Z" fill="black"/>
</svg>
