<svg width="25" height="25" viewBox="0 0 25 25" fill="none" xmlns="http://www.w3.org/2000/svg">
<path d="M21.3024 16.8487L19.3024 15.6987L20.1924 15.4587C20.3232 15.4283 20.4464 15.3718 20.5548 15.2928C20.6633 15.2137 20.7547 15.1136 20.8236 14.9984C20.8925 14.8833 20.9376 14.7554 20.956 14.6225C20.9745 14.4896 20.966 14.3543 20.9311 14.2247C20.8962 14.0951 20.8356 13.9739 20.7528 13.8682C20.67 13.7625 20.5669 13.6746 20.4494 13.6097C20.332 13.5448 20.2027 13.5041 20.0692 13.4902C19.9357 13.4763 19.8008 13.4894 19.6724 13.5288L16.8524 14.2887L14.1424 12.7188L16.8524 11.1488L19.6724 11.9087H19.9324C20.1977 11.9432 20.4657 11.8709 20.6776 11.7078C20.8895 11.5446 21.028 11.304 21.0624 11.0387C21.0969 10.7735 21.0246 10.5055 20.8615 10.2936C20.6983 10.0817 20.4577 9.94323 20.1924 9.90875L19.3024 9.71875L21.3024 8.56875C21.4167 8.50309 21.5169 8.41557 21.5973 8.31118C21.6777 8.2068 21.7368 8.0876 21.7712 7.96038C21.8055 7.83316 21.8145 7.70043 21.7976 7.56974C21.7806 7.43906 21.7381 7.313 21.6724 7.19875C21.6068 7.0845 21.5193 6.9843 21.4149 6.90388C21.3105 6.82345 21.1913 6.76437 21.0641 6.73001C20.9369 6.69566 20.8041 6.68669 20.6734 6.70363C20.5428 6.72057 20.4167 6.76309 20.3024 6.82875L18.1424 8.08875L18.4424 6.97875C18.4818 6.85044 18.4949 6.71552 18.481 6.58203C18.4671 6.44855 18.4264 6.31923 18.3615 6.20178C18.2966 6.08433 18.2086 5.98115 18.103 5.8984C17.9973 5.81564 17.8761 5.755 17.7465 5.72008C17.6169 5.68517 17.4816 5.6767 17.3487 5.69517C17.2158 5.71365 17.0879 5.75869 16.9728 5.82761C16.8576 5.89654 16.7575 5.98794 16.6784 6.09637C16.5993 6.2048 16.5429 6.32804 16.5124 6.45875L15.6924 9.45875L13.1424 10.9888V7.85875L15.2124 5.78875C15.3987 5.60139 15.5032 5.34794 15.5032 5.08375C15.5032 4.81956 15.3987 4.56611 15.2124 4.37875C15.1195 4.28502 15.0089 4.21063 14.887 4.15986C14.7652 4.10909 14.6345 4.08295 14.5024 4.08295C14.3704 4.08295 14.2397 4.10909 14.1179 4.15986C13.996 4.21063 13.8854 4.28502 13.7924 4.37875L13.1424 5.02875V2.71875C13.1424 2.45353 13.0371 2.19918 12.8496 2.01164C12.662 1.82411 12.4077 1.71875 12.1424 1.71875C11.8772 1.71875 11.6229 1.82411 11.4353 2.01164C11.2478 2.19918 11.1424 2.45353 11.1424 2.71875V5.18875L10.3324 4.37875C10.2395 4.28502 10.1289 4.21063 10.007 4.15986C9.88517 4.10909 9.75446 4.08295 9.62245 4.08295C9.49044 4.08295 9.35973 4.10909 9.23787 4.15986C9.11601 4.21063 9.00541 4.28502 8.91245 4.37875C8.7262 4.56611 8.62165 4.81956 8.62165 5.08375C8.62165 5.34794 8.7262 5.60139 8.91245 5.78875L11.1424 8.01875V11.0188L8.57245 9.49875L7.75245 6.49875C7.722 6.36804 7.66555 6.2448 7.58646 6.13637C7.50737 6.02794 7.40727 5.93654 7.29212 5.86761C7.17696 5.79869 7.04911 5.75364 6.91618 5.73517C6.78325 5.7167 6.64796 5.72517 6.51838 5.76008C6.38879 5.795 6.26756 5.85564 6.1619 5.9384C6.05625 6.02115 5.96833 6.12433 5.90339 6.24178C5.83845 6.35923 5.79782 6.48855 5.78391 6.62203C5.77001 6.75552 5.78311 6.89044 5.82245 7.01875L6.14245 8.08875L3.98245 6.84875C3.8682 6.78309 3.74213 6.74057 3.61145 6.72363C3.48077 6.70669 3.34803 6.71566 3.22082 6.75001C3.0936 6.78437 2.9744 6.84345 2.87001 6.92388C2.76563 7.0043 2.67811 7.1045 2.61245 7.21875C2.54679 7.333 2.50427 7.45906 2.48733 7.58975C2.47039 7.72043 2.47935 7.85316 2.51371 7.98038C2.5831 8.2373 2.75171 8.45614 2.98245 8.58875L4.98245 9.71875L4.14245 9.97875C3.87723 10.0132 3.63657 10.1517 3.47342 10.3636C3.31026 10.5755 3.23797 10.8435 3.27245 11.1088C3.30693 11.374 3.44535 11.6146 3.65726 11.7778C3.86918 11.9409 4.13723 12.0132 4.40245 11.9788H4.66245L7.48245 11.2188L10.1424 12.7188L7.43245 14.2887L4.61245 13.5288C4.48013 13.4796 4.33891 13.4591 4.19807 13.4684C4.05724 13.4778 3.91998 13.5168 3.79532 13.583C3.67066 13.6492 3.56143 13.7411 3.47481 13.8525C3.38819 13.9639 3.32614 14.0925 3.29274 14.2296C3.25935 14.3667 3.25536 14.5094 3.28105 14.6482C3.30673 14.787 3.3615 14.9187 3.44177 15.0349C3.52203 15.151 3.62596 15.2488 3.74673 15.3218C3.86749 15.3949 4.00235 15.4415 4.14245 15.4587L5.03245 15.6987L3.03245 16.8487C2.80171 16.9814 2.6331 17.2002 2.56371 17.4571C2.49432 17.714 2.52984 17.988 2.66245 18.2188C2.79506 18.4495 3.01389 18.6181 3.27082 18.6875C3.52774 18.7569 3.80171 18.7214 4.03245 18.5888L6.14245 17.3487L5.84245 18.4587C5.80281 18.5868 5.7893 18.7214 5.80272 18.8548C5.81615 18.9881 5.85623 19.1174 5.9206 19.2349C5.98496 19.3524 6.07229 19.4558 6.1774 19.5389C6.2825 19.6221 6.40324 19.6832 6.53245 19.7188C6.61884 19.7286 6.70606 19.7286 6.79245 19.7188C7.01821 19.7265 7.23994 19.6576 7.42152 19.5232C7.60311 19.3888 7.73385 19.1969 7.79245 18.9788L8.61245 15.9788L11.1424 14.4487V17.5788L9.07245 19.6488C8.8862 19.8361 8.78165 20.0896 8.78165 20.3538C8.78165 20.6179 8.8862 20.8714 9.07245 21.0588C9.16506 21.1532 9.27551 21.2284 9.39738 21.2799C9.51926 21.3314 9.65014 21.3582 9.78245 21.3587C9.91476 21.3582 10.0456 21.3314 10.1675 21.2799C10.2894 21.2284 10.3998 21.1532 10.4924 21.0588L11.1424 20.4088V22.7188C11.1424 22.984 11.2478 23.2383 11.4353 23.4259C11.6229 23.6134 11.8772 23.7188 12.1424 23.7188C12.4077 23.7188 12.662 23.6134 12.8496 23.4259C13.0371 23.2383 13.1424 22.984 13.1424 22.7188V20.2488L13.9524 21.0588C14.0454 21.1525 14.156 21.2269 14.2779 21.2776C14.3997 21.3284 14.5304 21.3545 14.6624 21.3545C14.7945 21.3545 14.9252 21.3284 15.047 21.2776C15.1689 21.2269 15.2795 21.1525 15.3724 21.0588C15.5587 20.8714 15.6632 20.6179 15.6632 20.3538C15.6632 20.0896 15.5587 19.8361 15.3724 19.6488L13.1424 17.4188V14.4187L15.7124 15.9087L16.5324 18.9088C16.591 19.1269 16.7218 19.3188 16.9034 19.4532C17.085 19.5876 17.3067 19.6565 17.5324 19.6488C17.6188 19.6586 17.7061 19.6586 17.7924 19.6488C17.9201 19.6151 18.0399 19.5565 18.1448 19.4763C18.2497 19.3962 18.3377 19.296 18.4037 19.1817C18.4697 19.0673 18.5124 18.941 18.5294 18.8101C18.5463 18.6791 18.5372 18.5461 18.5024 18.4188L18.1424 17.3487L20.2824 18.5888C20.3967 18.6544 20.5228 18.6969 20.6534 18.7139C20.7841 18.7308 20.9169 18.7218 21.0441 18.6875C21.1713 18.6531 21.2905 18.594 21.3949 18.5136C21.4993 18.4332 21.5868 18.333 21.6524 18.2188C21.7181 18.1045 21.7606 17.9784 21.7776 17.8478C21.7945 17.7171 21.7855 17.5843 21.7512 17.4571C21.7168 17.3299 21.6577 17.2107 21.5773 17.1063C21.4969 17.0019 21.3967 16.9144 21.2824 16.8487H21.3024Z" fill="#242529"/>
</svg>
