<svg width="53" height="40" viewBox="0 0 53 40" fill="none" xmlns="http://www.w3.org/2000/svg">
<path d="M52.5048 31.9015C52.5048 36.3327 48.8965 39.9411 44.4652 39.9411H0.722137V8.09917C0.722137 3.6679 4.33046 0.0595703 8.76174 0.0595703H52.5048V31.9015Z" fill="white"/>
<path d="M38.2613 23.7359H41.5848C41.6797 23.7359 41.9013 23.7042 41.9963 23.7042C42.6293 23.5776 43.1674 23.0079 43.1674 22.2166C43.1674 21.4569 42.6293 20.8872 41.9963 20.7289C41.9013 20.6973 41.7114 20.6973 41.5848 20.6973H38.2613V23.7359Z" fill="url(#paint0_linear_47_1870)"/>
<path d="M41.205 2.75C38.0398 2.75 35.4443 5.31381 35.4443 8.51066V14.4929H43.5789C43.7688 14.4929 43.9903 14.4929 44.1486 14.5245C45.9844 14.6195 47.3455 15.5691 47.3455 17.215C47.3455 18.5127 46.4275 19.6205 44.7183 19.8421V19.9054C46.5858 20.032 48.0101 21.0765 48.0101 22.6907C48.0101 24.4316 46.4275 25.5711 44.3385 25.5711H35.4127V37.2823H43.8637C47.0289 37.2823 49.6244 34.7185 49.6244 31.5216V2.75H41.205Z" fill="url(#paint1_linear_47_1870)"/>
<path d="M42.7559 17.5948C42.7559 16.8352 42.2178 16.3288 41.5848 16.2338C41.5215 16.2338 41.3632 16.2021 41.2683 16.2021H38.2613V18.9875H41.2683C41.3632 18.9875 41.5531 18.9875 41.5848 18.9559C42.2178 18.8609 42.7559 18.3545 42.7559 17.5948Z" fill="url(#paint2_linear_47_1870)"/>
<path d="M9.36311 2.75C6.19792 2.75 3.60245 5.31381 3.60245 8.51066V22.7224C5.2167 23.5137 6.89426 24.0201 8.57181 24.0201C10.5659 24.0201 11.6421 22.8174 11.6421 21.1715V14.4612H16.5798V21.1398C16.5798 23.7353 14.9655 25.8559 9.48972 25.8559C6.16626 25.8559 3.5708 25.1279 3.5708 25.1279V37.2507H12.0219C15.1871 37.2507 17.7825 34.6868 17.7825 31.49V2.75H9.36311Z" fill="url(#paint3_linear_47_1870)"/>
<path d="M25.284 2.75C22.1188 2.75 19.5233 5.31381 19.5233 8.51066V16.0438C20.9793 14.8094 23.5115 14.0181 27.5946 14.208C29.7786 14.303 32.1208 14.9044 32.1208 14.9044V17.3416C30.9497 16.7402 29.557 16.2021 27.7528 16.0755C24.6509 15.8539 22.7835 17.3732 22.7835 20.032C22.7835 22.7224 24.6509 24.2417 27.7528 23.9885C29.557 23.8619 30.9497 23.2921 32.1208 22.7224V25.1596C32.1208 25.1596 29.8102 25.761 27.5946 25.8559C23.5115 26.0459 20.9793 25.2546 19.5233 24.0201V37.314H27.9744C31.1396 37.314 33.7351 34.7501 33.7351 31.5533V2.75H25.284Z" fill="url(#paint4_linear_47_1870)"/>
<defs>
<linearGradient id="paint0_linear_47_1870" x1="35.439" y1="22.2203" x2="49.6626" y2="22.2203" gradientUnits="userSpaceOnUse">
<stop stop-color="#007940"/>
<stop offset="0.2285" stop-color="#00873F"/>
<stop offset="0.7433" stop-color="#40A737"/>
<stop offset="1" stop-color="#5CB531"/>
</linearGradient>
<linearGradient id="paint1_linear_47_1870" x1="35.4386" y1="20.0023" x2="49.6633" y2="20.0023" gradientUnits="userSpaceOnUse">
<stop stop-color="#007940"/>
<stop offset="0.2285" stop-color="#00873F"/>
<stop offset="0.7433" stop-color="#40A737"/>
<stop offset="1" stop-color="#5CB531"/>
</linearGradient>
<linearGradient id="paint2_linear_47_1870" x1="35.4387" y1="17.5909" x2="49.6628" y2="17.5909" gradientUnits="userSpaceOnUse">
<stop stop-color="#007940"/>
<stop offset="0.2285" stop-color="#00873F"/>
<stop offset="0.7433" stop-color="#40A737"/>
<stop offset="1" stop-color="#5CB531"/>
</linearGradient>
<linearGradient id="paint3_linear_47_1870" x1="3.59575" y1="20.0023" x2="18.0395" y2="20.0023" gradientUnits="userSpaceOnUse">
<stop stop-color="#1F286F"/>
<stop offset="0.4751" stop-color="#004E94"/>
<stop offset="0.8261" stop-color="#0066B1"/>
<stop offset="1" stop-color="#006FBC"/>
</linearGradient>
<linearGradient id="paint4_linear_47_1870" x1="19.4415" y1="20.0023" x2="33.4697" y2="20.0023" gradientUnits="userSpaceOnUse">
<stop stop-color="#6C2C2F"/>
<stop offset="0.1735" stop-color="#882730"/>
<stop offset="0.5731" stop-color="#BE1833"/>
<stop offset="0.8585" stop-color="#DC0436"/>
<stop offset="1" stop-color="#E60039"/>
</linearGradient>
</defs>
</svg>
