<svg width="200" height="96" viewBox="0 0 200 96" fill="none" xmlns="http://www.w3.org/2000/svg">
<path d="M53.2421 47.8183C52.9576 47.9115 52.7243 47.9874 52.4343 48.0826C52.5337 48.4581 52.6152 48.7756 52.7029 49.0917C53.501 51.9691 54.3026 54.8452 55.0987 57.7233C55.4211 58.889 55.729 60.0582 56.0487 61.2246C56.3242 62.2316 55.5509 63.0454 54.5325 62.7893C54.364 62.7465 54.1818 62.5678 54.0996 62.4042C53.8103 61.8292 53.5355 61.2433 53.3015 60.6435C52.3742 58.2665 51.4635 55.8832 50.548 53.5021C50.0302 52.1555 49.5158 50.8075 48.9959 49.4623C48.9697 49.394 48.9103 49.3388 48.8399 49.2408C48.63 49.3002 48.4159 49.3609 48.1418 49.4389C48.3103 50.0946 48.4781 50.7081 48.6251 51.3266C49.0691 53.2039 49.4971 55.0854 49.948 56.9606C50.2249 58.1119 50.5356 59.2541 50.8249 60.4019C51.0258 61.2005 51.2267 61.9997 51.4076 62.8031C51.545 63.4119 51.2267 64.0241 50.7178 64.1911C50.0281 64.4168 49.551 64.2484 49.2148 63.6293C49.0926 63.405 49.018 63.1537 48.9317 62.9108C47.8021 59.729 46.6719 56.5479 45.5472 53.364C45.222 52.4447 44.912 51.5191 44.5743 50.5363C44.3009 50.6371 44.0703 50.7226 43.7686 50.8331C43.9674 51.7717 44.1684 52.669 44.3472 53.5711C44.6765 55.2351 44.9762 56.9054 45.3221 58.566C45.5368 59.5965 45.795 60.6193 46.0664 61.6374C46.4972 63.2559 47.0067 64.8413 47.8139 66.33C48.4083 67.426 49.2762 68.1804 50.3367 68.7498C51.4414 69.3427 52.4874 70.0094 53.1378 71.1144C53.6853 72.0448 54.2011 72.9994 54.6513 73.9801C55.1235 75.0092 55.4998 76.0818 55.9555 77.2282C55.2727 77.3345 54.6257 77.487 53.9726 77.5263C51.5547 77.6733 49.1851 77.4111 46.8866 76.6084C44.9416 75.9285 43.17 74.9443 41.5882 73.6233C39.9574 72.2608 38.4384 70.7942 37.2681 69.0017C36.0081 67.0727 35.1858 64.9779 34.8944 62.6885C34.7743 61.745 34.5982 60.7919 34.6306 59.8491C34.7107 57.5245 35.0325 55.2365 36.0295 53.0886C37.1217 50.7337 38.6614 48.7466 40.6264 47.0411C43.0195 44.9643 45.8137 43.8027 48.8626 43.1698C50.5611 42.8172 52.2969 42.6839 54.0209 42.851C57.5953 43.1968 60.8148 44.4502 63.6131 46.7554C65.5188 48.3249 67.0274 50.1967 68.1348 52.3867C69.0241 54.1446 69.564 56.013 69.8333 57.9752C69.9997 59.1899 70.0156 60.4019 69.9279 61.6035C69.8022 63.3263 69.3969 65.0055 68.7493 66.6192C67.8117 68.9548 66.4294 70.9895 64.6157 72.7274C62.9579 74.3162 61.0578 75.5406 58.9168 76.382C58.8222 76.4193 58.7193 76.4393 58.6185 76.4565C58.5702 76.4648 58.517 76.4476 58.4328 76.4379C58.0738 75.9009 58.0406 75.2411 57.8963 74.6261C57.6623 73.6254 57.4613 72.6135 57.3198 71.5969C57.179 70.5837 56.9953 69.5518 57.2666 68.5386C57.4386 67.8961 57.663 67.2493 57.9764 66.6654C58.9651 64.8254 59.0376 62.9149 58.4597 60.9686C57.9978 59.4143 57.4821 57.8731 56.9104 56.356C56.338 54.8403 55.6704 53.3599 55.0358 51.8677C54.5815 50.8006 54.1134 49.7391 53.6481 48.6762C53.5259 48.3981 53.3878 48.1261 53.2421 47.8183Z" fill="#40B93C"/>
<path d="M89.3038 8.42731C89.201 8.46113 89.1077 8.50876 89.0111 8.5198C87.7324 8.65853 87.392 8.93322 87.064 10.208C86.8845 10.903 86.6809 11.6091 86.6394 12.3193C86.5276 14.2519 86.5904 16.1844 86.9826 18.09C87.3526 19.8908 87.9533 21.6135 88.8033 23.2458C89.6014 24.7801 90.6191 26.1156 92.1325 27.0308C93.7033 27.9812 95.4121 28.2842 97.1928 28.0509C98.6427 27.8611 99.9752 27.2738 101.119 26.3427C102.999 24.8125 104.082 22.8241 104.142 20.4036C104.216 17.3971 102.842 15.1036 100.305 13.5258C99.4319 12.9833 98.4763 12.5747 97.5753 12.0743C96.7385 11.6091 95.9804 11.0521 95.3652 10.2881C94.7548 9.53024 94.1445 8.75102 93.2614 8.26305C92.6152 7.90484 91.9378 7.67431 91.1922 7.77715C90.8773 7.82063 90.5728 7.94142 90.1544 8.05668C90.2753 7.52937 90.3761 7.09317 90.4907 6.59554C90.2104 6.50719 89.9563 6.42713 89.6829 6.34086C89.2852 7.03243 89.2728 7.71503 89.3038 8.42731ZM95.3293 34.9356C90.876 34.8714 87.1883 33.5939 83.9481 31.0753C81.843 29.4389 80.1272 27.4601 78.9721 25.0348C78.2934 23.6081 77.8011 22.1201 77.6147 20.5437C77.5091 19.6506 77.3254 18.7512 77.351 17.8602C77.411 15.8262 77.6216 13.8081 78.3569 11.8755C79.4244 9.0685 81.1125 6.68181 83.315 4.67749C85.7281 2.47922 88.5582 1.07191 91.7915 0.462471C93.3298 0.17328 94.875 0.074581 96.4119 0.209859C99.6307 0.493529 102.585 1.55574 105.214 3.47793C107.841 5.39943 109.772 7.87447 111.098 10.823C111.669 12.0922 112.069 13.4285 112.228 14.8213C112.335 15.7662 112.515 16.7159 112.491 17.6594C112.461 18.8361 112.303 20.0164 112.115 21.1821C111.75 23.437 110.792 25.4599 109.482 27.3097C108.003 29.3975 106.157 31.1043 103.967 32.4406C102.047 33.6118 99.9607 34.3317 97.7596 34.7134C96.8503 34.8707 95.9161 34.8852 95.3293 34.9356Z" fill="#40B93C"/>
<path d="M54.4021 10.6568C54.3807 10.5996 54.3593 10.5416 54.3372 10.4843C55.435 9.30406 56.579 8.17283 57.9482 7.2742C57.5229 6.4501 56.8883 6.06567 56.0943 5.90623C55.7926 5.84549 55.5289 5.92625 55.3376 6.17955C55.0131 6.61092 54.6789 7.03608 54.3738 7.48056C54.1176 7.85327 53.8974 8.25013 53.557 8.80781C53.3077 7.79598 52.783 7.18309 52.0366 6.77657C51.2661 6.35693 50.4417 6.25892 49.6015 6.42181C49.2797 7.1541 49.3943 7.83602 49.7244 8.46064C50.3561 9.65675 51.5085 10.0854 52.8306 10.3421C52.7195 10.6458 52.6283 10.8936 52.5255 11.1731C52.183 11.0647 51.9186 10.9723 51.6493 10.897C50.2677 10.5119 48.8834 10.4401 47.4494 10.6423C45.608 10.9012 43.6837 12.7474 43.2957 14.8325C43.0395 16.206 43.1597 17.5436 43.4559 18.8867C43.9986 21.3473 45.1267 23.4882 47.0241 25.162C48.503 26.4664 50.2146 27.0379 52.1782 26.3898C52.5427 26.2697 52.8638 26.2759 53.2221 26.3974C54.6872 26.8944 56.0564 26.6376 57.3737 25.8687C58.7601 25.0598 59.7129 23.8444 60.4828 22.4978C61.6979 20.3713 62.2413 18.0633 62.086 15.6007C61.9465 13.4011 60.5138 11.4016 58.2879 10.7486C57.1783 10.4236 56.0481 10.456 54.9158 10.6154C54.7459 10.6389 54.5733 10.6437 54.4021 10.6568ZM52.9556 34.7853C49.9391 34.6728 47.0682 34.0468 44.3762 32.7127C43.0361 32.048 41.8064 31.1963 40.7066 30.1652C39.1137 28.6709 37.7308 27.0227 36.7897 25.035C36.1027 23.5856 35.5939 22.0796 35.4088 20.479C35.3004 19.5355 35.1154 18.5851 35.1472 17.6444C35.2231 15.4033 35.5165 13.1912 36.4431 11.1068C37.1922 9.42139 38.1941 7.90987 39.3692 6.4929C40.4974 5.13252 41.7733 3.94746 43.2342 2.9591C45.512 1.4179 48.0162 0.500629 50.7504 0.140348C51.9386 -0.015636 53.1227 -0.0328916 54.2978 0.0457905C56.0205 0.161053 57.6989 0.565507 59.3118 1.20601C61.671 2.14398 63.734 3.53127 65.4767 5.36995C67.8173 7.84016 69.3266 10.7417 69.9825 14.0968C70.2821 15.629 70.3671 17.1702 70.2518 18.7066C69.9908 22.172 68.8398 25.3138 66.6373 28.049C65.1294 29.9222 63.3343 31.4448 61.2367 32.6036C59.6957 33.4553 58.0483 34.0558 56.3139 34.3629C55.2044 34.5597 54.0755 34.6487 52.9556 34.7853Z" fill="#40B93C"/>
<path d="M94.4 16.7299C95.8188 16.7776 97.3143 17.3311 98.5329 18.4147C99.7467 19.4935 100.479 20.945 100.418 22.5704C100.311 25.3898 97.6319 26.735 95.3535 25.5341C93.1876 24.3925 92.0269 22.5517 92.0359 20.0629C92.038 19.4376 92.0946 18.7985 92.2355 18.1911C92.5075 17.0164 92.9494 16.7161 94.4 16.7299Z" fill="#40B93C"/>
<path d="M129.785 26.5019H133.712C136.628 26.5019 138.957 25.7234 140.697 24.1663C142.437 22.6092 143.307 20.4227 143.307 17.606C143.307 14.857 142.437 12.6863 140.697 11.0968C138.957 9.50658 136.628 8.71147 133.712 8.71147H129.785V26.5019ZM120.141 35.0493V0.262804H133.563C139.661 0.262804 144.458 1.8537 147.955 5.03412C151.451 8.21453 153.199 12.3888 153.199 17.557C153.199 22.692 151.426 26.8912 147.88 30.1544C144.333 33.4184 139.495 35.0493 133.365 35.0493H120.141Z" fill="#40B93C"/>
<path d="M0.638183 35.0491V0.26327H28.4766V8.71125H10.2822V14.6248H26.7367V22.6256H10.2822V35.0491H0.638183Z" fill="#40B93C"/>
<path d="M9.8896 60.0539H14.4589C16.1802 60.0539 17.53 59.6405 18.507 58.813C19.4832 57.9861 19.9721 56.8597 19.9721 55.4365C19.9721 53.9464 19.4832 52.8131 18.507 52.0352C17.53 51.2574 16.1643 50.8681 14.4092 50.8681H9.8896V60.0539ZM0.253857 77.531V42.7749H15.1542C19.5909 42.7749 23.1087 43.8599 25.7089 46.0278C28.3077 48.1957 29.6078 51.216 29.6078 55.0887C29.6078 59.0607 28.2331 62.139 25.4852 64.3235C22.7366 66.5079 19.1277 67.6005 14.6578 67.6005H9.8896V77.531H0.253857Z" fill="#40B93C"/>
<path d="M87.3922 77.9237L75.7597 42.8888H85.9505L92.0153 63.0149L98.7264 42.7901H107.028L113.739 63.0149L119.804 42.8888H129.796L118.164 77.9237H109.762L102.753 57.8964L95.7934 77.9237H87.3922Z" fill="#40B93C"/>
<path d="M133.623 77.675V42.8892H161.611V51.0887H143.168V56.3563H159.871V63.9595H143.168V69.4755H161.859V77.675H133.623Z" fill="#40B93C"/>
<path d="M176.425 59.5864H182.788C184.41 59.5864 185.679 59.2137 186.591 58.4683C187.502 57.7229 187.958 56.6883 187.958 55.3624C187.958 54.0041 187.502 52.9771 186.591 52.2814C185.679 51.5857 184.395 51.2378 182.738 51.2378H176.425V59.5864ZM166.78 77.675V42.8892H183.235C188.306 42.8892 192.084 44.1316 194.569 46.6163C196.624 48.671 197.651 51.42 197.651 54.8655C197.651 59.9681 195.265 63.5295 190.493 65.5497L198.794 77.675H187.659L180.65 67.1399H176.425V77.675H166.78Z" fill="#40B93C"/>
<path d="M7.69285 85.0414V93.7378H6.10209V86.4073H1.59077V93.7378H0V85.0414H7.69285Z" fill="#40B93C"/>
<path d="M10.1533 85.0414H11.744V91.2152L16.4169 85.0414H17.9207V93.7378H16.3299V87.5758L11.657 93.7378H10.1533V85.0414Z" fill="#40B93C"/>
<path d="M26.6697 86.4076H23.7864V93.7375H22.1832V86.4076H19.3124V85.0417H26.6697V86.4076Z" fill="#40B93C"/>
<path d="M32.8587 90.4577L31.2182 86.6562L29.5902 90.4577H32.8587ZM33.3931 91.7249H29.0433L28.1858 93.7375H26.5205L30.4353 85.0411H32.026L35.9532 93.7375H34.2631L33.3931 91.7249Z" fill="#40B93C"/>
<path d="M45.0138 85.0414V93.7378H43.3981V90.0101H38.8993V93.7378H37.2836V85.0414H38.8993V88.6311H43.3981V85.0414H45.0138Z" fill="#40B93C"/>
<path d="M47.4622 85.0414H49.053V91.2152L53.7258 85.0414H55.2296V93.7378H53.6388V87.5758L48.966 93.7378H47.4622V85.0414Z" fill="#40B93C"/>
<path d="M64.1897 92.3835V93.7376H57.665V85.0412H64.0157V86.3953H59.2806V88.6564H63.4813V89.9857H59.2806V92.3835H64.1897Z" fill="#40B93C"/>
<path d="M75.2198 90.0041C75.514 90.3727 75.661 90.8055 75.661 91.3024C75.661 91.8242 75.4912 92.2776 75.1515 92.6635C74.8118 93.0479 74.3582 93.3447 73.7906 93.5517C73.2231 93.7581 72.6038 93.8616 71.9326 93.8616C71.3527 93.8616 70.7706 93.7816 70.1865 93.6194C69.6024 93.4579 69.0618 93.2156 68.5647 92.8933L69.0867 91.7131C69.4678 91.9698 69.8903 92.1658 70.3543 92.3025C70.8183 92.4391 71.2781 92.5075 71.7338 92.5075C72.3876 92.5075 72.9331 92.3791 73.3681 92.1223C73.803 91.8656 74.0205 91.5143 74.0205 91.0664C74.0205 90.6854 73.8631 90.3955 73.5483 90.1967C73.2334 89.9979 72.7985 89.8992 72.2433 89.8992H70.2176V88.6313H72.1191C72.5996 88.6313 72.9766 88.532 73.25 88.3332C73.5234 88.1344 73.6601 87.8652 73.6601 87.5257C73.6601 87.1198 73.4758 86.8051 73.1071 86.5815C72.7384 86.3578 72.2689 86.2467 71.6965 86.2467C71.3071 86.2467 70.9053 86.3019 70.491 86.4137C70.0768 86.5256 69.6874 86.6891 69.3228 86.9045L68.8133 85.6C69.2607 85.3598 69.735 85.1804 70.2362 85.0596C70.7375 84.9395 71.2367 84.8794 71.7338 84.8794C72.3801 84.8794 72.9745 84.9788 73.5172 85.1776C74.0599 85.3764 74.4928 85.6601 74.8159 86.0286C75.1391 86.3972 75.3006 86.8299 75.3006 87.3269C75.3006 87.7576 75.1846 88.1344 74.9526 88.4574C74.7206 88.7811 74.401 89.0289 73.9964 89.2028C74.5176 89.3685 74.9257 89.6363 75.2198 90.0041Z" fill="#40B93C"/>
<path d="M79.5255 90.7624C79.3846 91.5119 79.1616 92.0475 78.8544 92.3705H83.2663V86.4073H79.861L79.7989 87.9485C79.7575 89.0749 79.6663 90.0128 79.5255 90.7624ZM86.1123 92.3705V95.5882H84.6216V93.7378H77.9478V95.5882H76.4434L76.4565 92.3705H76.8293C77.3761 92.3464 77.7587 91.9426 77.9789 91.1593C78.1978 90.3766 78.3324 89.2564 78.3828 87.7994L78.4815 85.0414H84.8577V92.3705H86.1123Z" fill="#40B93C"/>
<path d="M93.2211 92.0538C93.6857 91.7929 94.0496 91.4292 94.3154 90.9605C94.5805 90.4926 94.7124 89.9687 94.7124 89.3897C94.7124 88.8099 94.5805 88.286 94.3154 87.8174C94.0496 87.3501 93.6857 86.985 93.2211 86.7241C92.7571 86.4632 92.2351 86.3335 91.6552 86.3335C91.0759 86.3335 90.5539 86.4632 90.0899 86.7241C89.6253 86.985 89.2614 87.3501 88.9963 87.8174C88.7305 88.286 88.5986 88.8099 88.5986 89.3897C88.5986 89.9687 88.7305 90.4926 88.9963 90.9605C89.2614 91.4292 89.6253 91.7929 90.0899 92.0538C90.5539 92.3154 91.0759 92.4452 91.6552 92.4452C92.2351 92.4452 92.7571 92.3154 93.2211 92.0538ZM89.2573 93.2837C88.5447 92.8993 87.9848 92.3644 87.5788 91.6818C87.1728 90.9985 86.9698 90.2338 86.9698 89.3897C86.9698 88.5442 87.1728 87.7808 87.5788 87.0968C87.9848 86.4135 88.5447 85.88 89.2573 85.4942C89.9691 85.1091 90.7686 84.9165 91.6552 84.9165C92.5424 84.9165 93.3412 85.1091 94.0537 85.4942C94.7663 85.88 95.3262 86.4115 95.7322 87.0913C96.1382 87.7705 96.3412 88.5359 96.3412 89.3897C96.3412 90.2427 96.1382 91.0082 95.7322 91.688C95.3262 92.3665 94.7663 92.8993 94.0537 93.2837C93.3412 93.6696 92.5424 93.8614 91.6552 93.8614C90.7686 93.8614 89.9691 93.6696 89.2573 93.2837Z" fill="#40B93C"/>
<path d="M103.238 89.4144C103.602 89.1155 103.785 88.6897 103.785 88.1348C103.785 87.5798 103.602 87.1533 103.238 86.8551C102.874 86.5563 102.339 86.4079 101.635 86.4079H99.7454V89.8609H101.635C102.339 89.8609 102.874 89.7125 103.238 89.4144ZM103.68 85.414C104.238 85.6618 104.667 86.0186 104.966 86.4824C105.264 86.9462 105.413 87.497 105.413 88.1348C105.413 88.7642 105.264 89.3129 104.966 89.7802C104.667 90.2488 104.238 90.607 103.68 90.8555C103.12 91.1033 102.464 91.2282 101.71 91.2282H99.7454V93.7378H98.1305V85.0413H101.71C102.464 85.0413 103.12 85.1655 103.68 85.414Z" fill="#40B93C"/>
<path d="M112.658 92.0538C113.122 91.7929 113.486 91.4292 113.751 90.9605C114.017 90.4926 114.149 89.9687 114.149 89.3897C114.149 88.8099 114.017 88.286 113.751 87.8174C113.486 87.3501 113.122 86.985 112.658 86.7241C112.194 86.4632 111.672 86.3335 111.092 86.3335C110.512 86.3335 109.99 86.4632 109.526 86.7241C109.062 86.985 108.697 87.3501 108.432 87.8174C108.167 88.286 108.035 88.8099 108.035 89.3897C108.035 89.9687 108.167 90.4926 108.432 90.9605C108.697 91.4292 109.062 91.7929 109.526 92.0538C109.99 92.3154 110.512 92.4452 111.092 92.4452C111.672 92.4452 112.194 92.3154 112.658 92.0538ZM108.693 93.2837C107.981 92.8993 107.422 92.3644 107.016 91.6818C106.61 90.9985 106.407 90.2338 106.407 89.3897C106.407 88.5442 106.61 87.7808 107.016 87.0968C107.422 86.4135 107.981 85.88 108.693 85.4942C109.406 85.1091 110.205 84.9165 111.092 84.9165C111.978 84.9165 112.778 85.1091 113.491 85.4942C114.203 85.88 114.762 86.4115 115.168 87.0913C115.574 87.7705 115.777 88.5359 115.777 89.3897C115.777 90.2427 115.574 91.0082 115.168 91.688C114.762 92.3665 114.203 92.8993 113.491 93.2837C112.778 93.6696 111.978 93.8614 111.092 93.8614C110.205 93.8614 109.406 93.6696 108.693 93.2837Z" fill="#40B93C"/>
<path d="M123.371 91.2032C123.371 90.3577 122.799 89.936 121.656 89.936H119.17V92.4953H121.656C122.799 92.4953 123.371 92.0646 123.371 91.2032ZM119.17 88.7558H121.333C121.855 88.7558 122.252 88.6523 122.526 88.4452C122.799 88.2381 122.936 87.9317 122.936 87.5259C122.936 87.12 122.799 86.8115 122.526 86.6003C122.252 86.3884 121.855 86.2835 121.333 86.2835H119.17V88.7558ZM124.565 89.9795C124.854 90.3398 124.999 90.7891 124.999 91.3275C124.999 92.0894 124.717 92.6816 124.154 93.104C123.59 93.5264 122.775 93.7376 121.705 93.7376H117.579V85.0412H121.469C122.447 85.0412 123.21 85.2358 123.757 85.6251C124.304 86.0143 124.576 86.5651 124.576 87.2774C124.576 87.7329 124.466 88.1263 124.248 88.4569C124.027 88.7889 123.71 89.0415 123.297 89.2155C123.851 89.3645 124.275 89.6192 124.565 89.9795Z" fill="#40B93C"/>
<path d="M132.43 92.0538C132.894 91.7929 133.259 91.4292 133.524 90.9605C133.789 90.4926 133.922 89.9687 133.922 89.3897C133.922 88.8099 133.789 88.286 133.524 87.8174C133.259 87.3501 132.894 86.985 132.43 86.7241C131.966 86.4632 131.444 86.3335 130.864 86.3335C130.284 86.3335 129.763 86.4632 129.299 86.7241C128.835 86.985 128.47 87.3501 128.205 87.8174C127.94 88.286 127.807 88.8099 127.807 89.3897C127.807 89.9687 127.94 90.4926 128.205 90.9605C128.47 91.4292 128.835 91.7929 129.299 92.0538C129.763 92.3154 130.284 92.4452 130.864 92.4452C131.444 92.4452 131.966 92.3154 132.43 92.0538ZM128.466 93.2837C127.753 92.8993 127.194 92.3644 126.788 91.6818C126.382 90.9985 126.179 90.2338 126.179 89.3897C126.179 88.5442 126.382 87.7808 126.788 87.0968C127.194 86.4135 127.753 85.88 128.466 85.4942C129.178 85.1091 129.978 84.9165 130.864 84.9165C131.751 84.9165 132.55 85.1091 133.263 85.4942C133.976 85.88 134.535 86.4115 134.941 87.0913C135.347 87.7705 135.55 88.5359 135.55 89.3897C135.55 90.2427 135.347 91.0082 134.941 91.688C134.535 92.3665 133.976 92.8993 133.263 93.2837C132.55 93.6696 131.751 93.8614 130.864 93.8614C129.978 93.8614 129.178 93.6696 128.466 93.2837Z" fill="#40B93C"/>
<path d="M139.533 83.9973C139.156 83.6916 138.963 83.2436 138.955 82.6563H140.086C140.094 82.962 140.194 83.1988 140.384 83.3637C140.575 83.5294 140.852 83.6122 141.216 83.6122C141.573 83.6122 141.852 83.5294 142.056 83.3637C142.258 83.1988 142.364 82.962 142.373 82.6563H143.491C143.483 83.2353 143.286 83.6805 142.901 83.9911C142.516 84.3017 141.954 84.457 141.216 84.457C140.471 84.457 139.91 84.3038 139.533 83.9973ZM137.352 85.0416H138.943V91.2154L143.616 85.0416H145.119V93.7373H143.529V87.576L138.856 93.7373H137.352V85.0416Z" fill="#40B93C"/>
<path d="M158.591 90.0729H157.099V93.7378H155.521V90.0729H154.03L151.83 93.7378H149.966L152.7 89.2025L150.152 85.0414H151.867L153.993 88.6808H155.521V85.0414H157.099V88.6808H158.603L160.74 85.0414H162.456L159.921 89.2157L162.642 93.7378H160.778L158.591 90.0729Z" fill="#40B93C"/>
<path d="M163.785 85.0414H165.376V91.2152L170.048 85.0414H171.553V93.7378H169.961V87.5758L165.289 93.7378H163.785V85.0414Z" fill="#40B93C"/>
<path d="M179.787 90.0041C180.081 90.3727 180.228 90.8055 180.228 91.3024C180.228 91.8242 180.058 92.2776 179.718 92.6635C179.378 93.0479 178.925 93.3447 178.358 93.5517C177.789 93.7581 177.171 93.8616 176.5 93.8616C175.919 93.8616 175.338 93.7816 174.753 93.6194C174.169 93.4579 173.629 93.2156 173.132 92.8933L173.654 91.7131C174.035 91.9698 174.457 92.1658 174.921 92.3025C175.385 92.4391 175.845 92.5075 176.301 92.5075C176.955 92.5075 177.499 92.3791 177.934 92.1223C178.37 91.8656 178.587 91.5143 178.587 91.0664C178.587 90.6854 178.43 90.3955 178.115 90.1967C177.8 89.9979 177.365 89.8992 176.81 89.8992H174.785V88.6313H176.686C177.167 88.6313 177.544 88.532 177.816 88.3332C178.09 88.1344 178.227 87.8652 178.227 87.5257C178.227 87.1198 178.043 86.8051 177.673 86.5815C177.305 86.3578 176.835 86.2467 176.263 86.2467C175.874 86.2467 175.472 86.3019 175.057 86.4137C174.644 86.5256 174.254 86.6891 173.89 86.9045L173.38 85.6C173.828 85.3598 174.302 85.1804 174.803 85.0596C175.304 84.9395 175.803 84.8794 176.301 84.8794C176.947 84.8794 177.541 84.9788 178.084 85.1776C178.626 85.3764 179.06 85.6601 179.383 86.0286C179.706 86.3972 179.868 86.8299 179.868 87.3269C179.868 87.7576 179.751 88.1344 179.52 88.4574C179.287 88.7811 178.968 89.0289 178.563 89.2028C179.084 89.3685 179.493 89.6363 179.787 90.0041Z" fill="#40B93C"/>
<path d="M189.784 85.0414V93.7378H188.169V90.0101H183.67V93.7378H182.054V85.0414H183.67V88.6311H188.169V85.0414H189.784Z" fill="#40B93C"/>
<path d="M192.233 85.0414H193.823V91.2152L198.496 85.0414H200V93.7378H198.409V87.5758L193.736 93.7378H192.233V85.0414Z" fill="#40B93C"/>
</svg>
