<svg width="100" height="40" viewBox="0 0 100 40" fill="none" xmlns="http://www.w3.org/2000/svg">
<path d="M26.6889 24.4625C26.5456 24.5095 26.4281 24.5477 26.282 24.5957C26.3321 24.7849 26.3731 24.9449 26.4173 25.1041C26.8193 26.5539 27.223 28.003 27.624 29.4532C27.7864 30.0406 27.9415 30.6297 28.1025 31.2174C28.2413 31.7247 27.8518 32.1347 27.3388 32.0057C27.254 31.9842 27.1622 31.8941 27.1208 31.8117C26.9751 31.522 26.8367 31.2267 26.7188 30.9245C26.2517 29.7269 25.7931 28.5261 25.3319 27.3263C25.0711 26.6478 24.812 25.9687 24.5502 25.2909C24.537 25.2565 24.5071 25.2286 24.4716 25.1793C24.3659 25.2092 24.2581 25.2398 24.12 25.2791C24.2049 25.6094 24.2894 25.9186 24.3634 26.2302C24.587 27.1761 24.8026 28.1241 25.0297 29.0689C25.1692 29.649 25.3257 30.2245 25.4714 30.8028C25.5726 31.2052 25.6738 31.6079 25.7649 32.0127C25.8341 32.3194 25.6738 32.6279 25.4175 32.712C25.0701 32.8257 24.8298 32.7409 24.6604 32.4289C24.5989 32.3159 24.5613 32.1893 24.5178 32.0669C23.9489 30.4638 23.3796 28.861 22.8131 27.2568C22.6493 26.7936 22.4932 26.3272 22.3231 25.832C22.1854 25.8828 22.0693 25.9259 21.9173 25.9815C22.0175 26.4545 22.1187 26.9066 22.2087 27.3611C22.3746 28.1995 22.5255 29.0411 22.6998 29.8778C22.8079 30.397 22.938 30.9124 23.0746 31.4253C23.2916 32.2408 23.5483 33.0396 23.9548 33.7897C24.2542 34.342 24.6914 34.722 25.2255 35.0089C25.7819 35.3077 26.3088 35.6436 26.6364 36.2004C26.9121 36.6691 27.1719 37.1501 27.3986 37.6442C27.6365 38.1628 27.826 38.7032 28.0556 39.2808C27.7116 39.3343 27.3858 39.4112 27.0568 39.431C25.839 39.5051 24.6455 39.3729 23.4878 38.9685C22.5081 38.626 21.6158 38.1301 20.8191 37.4645C19.9977 36.778 19.2326 36.039 18.6432 35.1359C18.0085 34.1639 17.5943 33.1085 17.4476 31.955C17.3871 31.4796 17.2984 30.9993 17.3148 30.5243C17.3551 29.353 17.5171 28.2002 18.0193 27.118C18.5695 25.9315 19.345 24.9303 20.3347 24.071C21.54 23.0246 22.9474 22.4393 24.4831 22.1204C25.3385 21.9427 26.2128 21.8756 27.0811 21.9597C28.8815 22.134 30.5031 22.7655 31.9125 23.927C32.8723 24.7178 33.6322 25.6609 34.19 26.7643C34.6379 27.6501 34.9098 28.5915 35.0455 29.5801C35.1293 30.1922 35.1373 30.8028 35.0931 31.4083C35.0298 32.2763 34.8257 33.1224 34.4995 33.9354C34.0272 35.1122 33.331 36.1374 32.4175 37.0131C31.5825 37.8136 30.6255 38.4305 29.5471 38.8544C29.4994 38.8732 29.4476 38.8833 29.3969 38.892C29.3725 38.8962 29.3457 38.8875 29.3033 38.8826C29.1225 38.6121 29.1058 38.2796 29.0331 37.9697C28.9152 37.4655 28.814 36.9557 28.7427 36.4434C28.6718 35.9329 28.5793 35.413 28.716 34.9025C28.8025 34.5788 28.9156 34.2529 29.0734 33.9587C29.5714 33.0316 29.6079 32.069 29.3169 31.0883C29.0842 30.3052 28.8245 29.5287 28.5365 28.7643C28.2482 28.0006 27.9119 27.2547 27.5924 26.5028C27.3635 25.9652 27.1277 25.4303 26.8934 24.8948C26.8318 24.7547 26.7623 24.6176 26.6889 24.4625Z" fill="#40B93C"/>
<path d="M44.8523 4.61527C44.8005 4.63231 44.7535 4.6563 44.7049 4.66187C44.0608 4.73177 43.8894 4.87017 43.7242 5.51248C43.6338 5.86267 43.5312 6.21843 43.5103 6.57627C43.454 7.54999 43.4856 8.5237 43.6831 9.48386C43.8695 10.3912 44.1721 11.2592 44.6002 12.0816C45.0022 12.8547 45.5148 13.5276 46.2771 13.9887C47.0682 14.4676 47.9289 14.6202 48.8258 14.5027C49.5561 14.407 50.2272 14.1111 50.8035 13.642C51.7504 12.871 52.2957 11.8691 52.3259 10.6495C52.3631 9.13471 51.6711 7.97912 50.3935 7.18415C49.9535 6.91081 49.4722 6.70494 49.0184 6.45281C48.5969 6.21843 48.2151 5.93779 47.9053 5.55282C47.5978 5.17098 47.2904 4.77837 46.8456 4.5325C46.5201 4.35202 46.179 4.23587 45.8034 4.28768C45.6448 4.30959 45.4915 4.37045 45.2807 4.42852C45.3416 4.16284 45.3924 3.94306 45.4501 3.69232C45.3089 3.64781 45.1809 3.60747 45.0432 3.564C44.8429 3.91245 44.8367 4.25638 44.8523 4.61527ZM47.8872 17.9716C45.6441 17.9392 43.7868 17.2955 42.1548 16.0266C41.0944 15.202 40.2303 14.205 39.6485 12.983C39.3066 12.2642 39.0587 11.5144 38.9648 10.7201C38.9116 10.2701 38.8191 9.81701 38.8319 9.36806C38.8622 8.34322 38.9683 7.32638 39.3386 6.35266C39.8763 4.93833 40.7265 3.73579 41.8359 2.72591C43.0513 1.6183 44.4767 0.909227 46.1053 0.602158C46.8801 0.456448 47.6584 0.406718 48.4325 0.474879C50.0537 0.617807 51.5417 1.153 52.866 2.12151C54.1892 3.08966 55.1615 4.33672 55.8296 5.82233C56.1172 6.46186 56.3185 7.13511 56.3985 7.83688C56.4528 8.31296 56.5432 8.79148 56.5314 9.26686C56.5161 9.85978 56.4364 10.4544 56.3415 11.0418C56.1579 12.1779 55.6752 13.1972 55.0155 14.1292C54.2706 15.1812 53.3407 16.0412 52.2376 16.7144C51.2705 17.3046 50.2199 17.6673 49.1113 17.8596C48.6533 17.9389 48.1828 17.9462 47.8872 17.9716Z" fill="#40B93C"/>
<path d="M27.2731 5.73862C27.2624 5.70976 27.2516 5.68055 27.2404 5.65168C27.7934 5.05702 28.3696 4.48705 29.0592 4.03427C28.845 3.61905 28.5254 3.42535 28.1255 3.34501C27.9735 3.31441 27.8407 3.3551 27.7444 3.48273C27.5809 3.70007 27.4126 3.91429 27.2589 4.13825C27.1299 4.32603 27.0189 4.52599 26.8475 4.80698C26.7219 4.29717 26.4577 3.98836 26.0817 3.78353C25.6936 3.5721 25.2784 3.52272 24.8552 3.60479C24.6931 3.97376 24.7509 4.31734 24.9171 4.63206C25.2353 5.23472 25.8157 5.45068 26.4816 5.58004C26.4257 5.73306 26.3798 5.8579 26.3279 5.99874C26.1555 5.94415 26.0223 5.89755 25.8866 5.85964C25.1908 5.66559 24.4935 5.62943 23.7712 5.73132C22.8438 5.86173 21.8746 6.79198 21.6791 7.84255C21.5501 8.53458 21.6106 9.20854 21.7598 9.88527C22.0331 11.125 22.6014 12.2038 23.557 13.0471C24.3019 13.7043 25.164 13.9923 26.153 13.6657C26.3366 13.6052 26.4983 13.6084 26.6788 13.6696C27.4168 13.9199 28.1064 13.7906 28.7699 13.4032C29.4682 12.9956 29.9481 12.3832 30.3358 11.7047C30.9479 10.6333 31.2216 9.4704 31.1433 8.2296C31.0731 7.1213 30.3515 6.11385 29.2303 5.78487C28.6715 5.62108 28.1022 5.63742 27.5319 5.71776C27.4463 5.72958 27.3594 5.73201 27.2731 5.73862ZM26.5446 17.8958C25.0252 17.8392 23.5793 17.5237 22.2234 16.8515C21.5484 16.5166 20.929 16.0875 20.375 15.568C19.5728 14.8151 18.8762 13.9846 18.4022 12.9831C18.0562 12.2528 17.7999 11.494 17.7067 10.6875C17.6521 10.2122 17.5589 9.7333 17.5749 9.25931C17.6132 8.13014 17.761 7.01558 18.2276 5.96536C18.605 5.11614 19.1096 4.35455 19.7014 3.64061C20.2697 2.95518 20.9123 2.35808 21.6482 1.86009C22.7954 1.08355 24.0567 0.621384 25.4339 0.439855C26.0323 0.361262 26.6287 0.352568 27.2206 0.392212C28.0883 0.450288 28.9337 0.654073 29.746 0.976791C30.9343 1.44939 31.9734 2.14838 32.8512 3.07481C34.0301 4.31943 34.7902 5.7814 35.1206 7.47184C35.2715 8.24386 35.3143 9.0204 35.2562 9.79451C35.1248 11.5406 34.5451 13.1236 33.4357 14.5017C32.6762 15.4456 31.7721 16.2127 30.7156 16.7966C29.9394 17.2257 29.1096 17.5283 28.2361 17.683C27.6772 17.7821 27.1087 17.827 26.5446 17.8958Z" fill="#40B93C"/>
<path d="M47.4191 8.79857C48.1337 8.82257 48.887 9.10147 49.5008 9.64745C50.1121 10.191 50.4811 10.9223 50.4502 11.7413C50.3963 13.1619 49.047 13.8397 47.8994 13.2346C46.8084 12.6594 46.2239 11.7319 46.2284 10.4779C46.2294 10.1628 46.2579 9.8408 46.3289 9.53477C46.4659 8.94289 46.6885 8.79162 47.4191 8.79857Z" fill="#40B93C"/>
<path d="M65.2418 13.7222H67.2198C68.6884 13.7222 69.8614 13.3299 70.7377 12.5454C71.6141 11.7609 72.0523 10.6592 72.0523 9.23998C72.0523 7.85487 71.6141 6.76117 70.7377 5.96029C69.8614 5.15906 68.6884 4.75844 67.2198 4.75844H65.2418V13.7222ZM60.3843 18.0288V0.501555H67.1447C70.2161 0.501555 72.632 1.30313 74.3934 2.9056C76.1544 4.50806 77.0349 6.61129 77.0349 9.21529C77.0349 11.8026 76.1419 13.9183 74.3558 15.5625C72.5694 17.2071 70.1323 18.0288 67.0449 18.0288H60.3843Z" fill="#40B93C"/>
<path d="M0.193575 18.0287V0.50179H14.2151V4.75833H5.05104V7.73791H13.3388V11.7691H5.05104V18.0287H0.193575Z" fill="#40B93C"/>
<path d="M4.85329 30.6275H7.15474C8.0217 30.6275 8.70156 30.4192 9.19364 30.0022C9.68537 29.5856 9.93158 29.0181 9.93158 28.301C9.93158 27.5502 9.68537 26.9792 9.19364 26.5873C8.70156 26.1953 8.0137 25.9992 7.1297 25.9992H4.85329V30.6275ZM0 39.4334V21.9214H7.50493C9.73962 21.9214 11.5114 22.4681 12.8211 23.5604C14.13 24.6527 14.7849 26.1745 14.7849 28.1257C14.7849 30.1271 14.0925 31.6781 12.7084 32.7787C11.324 33.8794 9.50627 34.4299 7.2549 34.4299H4.85329V39.4334H0Z" fill="#40B93C"/>
<path d="M43.8894 39.6313L38.0304 21.9788H43.1633L46.218 32.1194L49.5982 21.9291H53.7796L57.1598 32.1194L60.2145 21.9788H65.2473L59.3883 39.6313H55.1568L51.6263 29.5404L48.1209 39.6313H43.8894Z" fill="#40B93C"/>
<path d="M67.1748 39.5059V21.979H81.2714V26.1103H71.9821V28.7644H80.3954V32.5953H71.9821V35.3746H81.3966V39.5059H67.1748Z" fill="#40B93C"/>
<path d="M88.733 30.3919H91.938C92.7552 30.3919 93.394 30.2041 93.8534 29.8286C94.3121 29.453 94.542 28.9317 94.542 28.2637C94.542 27.5793 94.3121 27.0618 93.8534 26.7113C93.394 26.3607 92.7472 26.1855 91.9129 26.1855H88.733V30.3919ZM83.8752 39.5059V21.979H92.163C94.7172 21.979 96.6202 22.605 97.8717 23.8569C98.9067 24.8922 99.4241 26.2773 99.4241 28.0133C99.4241 30.5842 98.2226 32.3787 95.8189 33.3965L100 39.5059H94.3914L90.861 34.1978H88.733V39.5059H83.8752Z" fill="#40B93C"/>
</svg>
