<svg width="65" height="40" viewBox="0 0 65 40" fill="none" xmlns="http://www.w3.org/2000/svg">
<path d="M40.9858 4.32715H23.5457V35.6639H40.9858V4.32715Z" fill="#FF5F00"/>
<path d="M24.6532 19.9957C24.6532 13.9055 27.4768 8.09215 32.2382 4.32731C23.6012 -2.48263 11.0333 -0.987763 4.22335 7.70459C-2.53122 16.3416 -1.03636 28.8542 7.656 35.6641C14.9089 41.3667 25.0407 41.3667 32.2936 35.6641C27.4768 31.8992 24.6532 26.0859 24.6532 19.9957Z" fill="#EB001B"/>
<path d="M64.5161 19.9957C64.5161 31.0134 55.6023 39.9272 44.5846 39.9272C40.1 39.9272 35.7815 38.4324 32.2935 35.6641C40.9305 28.8542 42.4254 16.3416 35.6154 7.64923C34.6189 6.43119 33.5116 5.26852 32.2935 4.32731C40.9305 -2.48263 53.4984 -0.987763 60.253 7.7046C63.0213 11.1926 64.5161 15.5111 64.5161 19.9957Z" fill="#F79E1B"/>
</svg>
