<svg width="111" height="30" viewBox="0 0 111 30" fill="none" xmlns="http://www.w3.org/2000/svg">
<path d="M0.527832 0.0849457H10.8081C11.7427 0.0849457 14.5464 -0.226578 15.7925 4.13475C16.7271 6.93846 17.9731 11.2998 19.8423 17.8418H20.4653C22.3345 10.9883 23.8921 6.31541 24.5151 4.13475C25.7612 -0.226578 28.8765 0.0849457 30.1226 0.0849457H39.7798V29.9912H29.811V12.2344H29.188L23.8921 29.9912H16.4155L11.1196 12.2344H10.1851V29.9912H0.527832M43.8296 0.0849457H53.7983V17.8418H54.7329L61.2749 3.20018C62.521 0.396469 65.3247 0.0849457 65.3247 0.0849457H74.6704V29.9912H64.7017V12.2344H64.0786L57.5366 26.876C56.2905 29.6797 53.1753 29.9912 53.1753 29.9912H43.8296M88.0659 20.957V29.9912H78.7202V14.415H109.25C108.003 18.1533 103.642 20.957 98.6577 20.957" fill="#0F754E"/>
<path d="M109.872 12.5459C111.119 6.93848 107.38 0.0849609 99.2807 0.0849609H78.0971C78.7202 6.62695 84.3276 12.5459 90.2465 12.5459" fill="url(#paint0_linear_47_1864)"/>
<defs>
<linearGradient id="paint0_linear_47_1864" x1="106.134" y1="-3.96484" x2="81.2123" y2="-3.96484" gradientUnits="userSpaceOnUse">
<stop stop-color="#1F5CD7"/>
<stop offset="1" stop-color="#02AEFF"/>
</linearGradient>
</defs>
</svg>
