<svg width="80" height="80" viewBox="0 0 80 80" fill="none" xmlns="http://www.w3.org/2000/svg">
<g clip-path="url(#clip0_44_844)">
<path d="M79.7189 8.04191C79.0522 3.48765 75.3657 0.108117 70.9526 0.00228591C66.7193 -0.0964896 63.0435 3.01494 62.0063 7.5692C61.7735 8.5887 61.7171 9.72109 61.6747 10.8923C61.6324 12.0564 61.6395 13.2594 61.643 14.427C61.6536 16.78 61.6641 19.2141 61.2902 21.5847C60.3271 27.7159 57.311 33.0709 52.7955 36.6656C48.3048 40.2392 42.7169 41.7702 37.0726 40.9694C32.028 40.2568 27.3397 37.5123 23.8719 33.2367C20.4007 28.9611 18.4604 23.5356 18.4075 17.9547C18.3969 16.84 18.4005 15.7146 18.4075 14.6246C18.4146 13.0407 18.4216 11.4003 18.3793 9.80223C18.2382 4.89167 14.714 0.527913 10.5125 0.0763675C5.57729 -0.452787 1.49927 2.641 0.363353 7.77027C0.26105 8.23593 0.18344 8.71217 0.102303 9.21663C0.0705539 9.42124 0.035277 9.62584 0 9.83045V18.0782C0.0493878 18.6321 0.0917201 19.193 0.134052 19.7362C0.222245 20.9215 0.313965 22.1456 0.479767 23.3168C2.06723 34.6266 6.89312 44.0421 14.8163 51.2915C15.5995 52.0076 15.9452 52.8119 15.9417 53.902C15.917 60.4423 15.924 69.7413 15.9276 76.1758V76.8567C15.9276 79.118 16.686 79.9575 18.7215 79.9575C22.4326 79.9575 26.1438 79.954 29.8549 79.9505C33.4073 79.9505 37.0055 79.9434 40.6214 79.9434C47.2888 79.9434 54.0232 79.954 60.687 79.9999C61.7453 80.0069 62.539 79.7177 63.0576 79.1391C63.7067 78.4195 63.8266 77.347 63.816 76.571C63.7772 74.0416 63.7878 68.8241 63.8019 66.3406C63.816 63.1551 63.8302 59.8602 63.742 56.6359C63.6643 53.8385 64.4157 51.9265 66.3383 50.0391C75.2458 41.2763 79.8283 29.9842 79.9588 16.4766C79.9623 16.0074 79.9694 15.5347 79.9764 15.062C80.0117 12.7232 80.0505 10.3032 79.7189 8.04543V8.04191ZM73.8523 27.991C72.2437 34.1857 69.4745 39.456 65.3894 44.1056C64.0594 45.6225 62.5425 47.0794 60.7505 48.5681C59.6004 49.5241 59.1595 50.4801 59.1771 51.9829C59.2336 56.2338 59.223 60.5482 59.2124 64.7214C59.2089 66.3689 59.2053 70.6656 59.2053 72.313V74.8353H20.503V72.1896C20.503 70.5492 20.503 66.2595 20.4959 64.6191C20.4889 60.4388 20.4853 56.1174 20.5171 51.863C20.5312 50.339 20.0797 49.3407 18.9649 48.4199C10.8724 41.7067 6.15936 32.7005 4.96347 21.6588C4.60012 18.3216 4.6495 14.9139 4.69184 11.619C4.69889 11.0334 4.70595 10.4478 4.713 9.86573C4.72711 8.53578 5.22099 7.29756 6.10644 6.38389C7.00601 5.45963 8.21601 4.96928 9.43306 5.03984C11.8989 5.18095 13.7263 7.3399 13.7757 10.1691C13.7968 11.2697 13.7898 12.3845 13.7862 13.4605C13.7792 15.8275 13.7686 18.2758 14.012 20.6181C15.0597 30.6333 19.681 38.1191 27.7453 42.8638C35.1641 47.2311 43.7646 47.4569 51.3421 43.4812C58.9055 39.5125 64.1512 32.0338 65.7245 22.9605C66.1796 20.3289 66.1937 17.6302 66.2113 14.7728C66.2184 13.471 66.2255 12.127 66.2784 10.8041C66.2854 10.6559 66.2854 10.5113 66.2854 10.3631C66.289 9.9257 66.2925 9.42829 66.4018 8.92383C66.8957 6.5638 68.8289 4.93048 70.9878 5.03631C73.3549 5.15272 75.1787 7.08237 75.3304 9.61879C75.7432 16.5754 75.2599 22.5866 73.8523 27.9946V27.991Z" fill="#40B93C"/>
<path d="M40.0676 10.4055C45.2815 10.4055 49.5218 14.6458 49.5218 19.8597C49.5218 25.0736 45.2815 29.3139 40.0676 29.3139C34.8536 29.3139 30.6134 25.0736 30.6134 19.8597C30.6134 14.6458 34.8536 10.4055 40.0676 10.4055ZM40.0676 5.65013C32.2185 5.65013 25.858 12.0106 25.858 19.8597C25.858 27.7088 32.2185 34.0693 40.0676 34.0693C47.9167 34.0693 54.2771 27.7088 54.2771 19.8597C54.2771 12.0106 47.9167 5.65013 40.0676 5.65013Z" fill="#40B93C"/>
</g>
<defs>
<clipPath id="clip0_44_844">
<rect width="80" height="80" fill="white"/>
</clipPath>
</defs>
</svg>
