<svg width="80" height="80" viewBox="0 0 80 80" fill="none" xmlns="http://www.w3.org/2000/svg">
<g clip-path="url(#clip0_44_837)">
<path d="M19.5289 79.9969C18.5289 79.6368 18.0046 78.8744 17.5617 77.9351C14.8826 72.271 12.942 66.383 11.9014 60.1913C10.784 53.5441 11.1392 46.9908 12.8779 40.4907C14.0031 36.281 15.1799 32.0807 16.1408 27.8334C17.111 23.5485 17.2362 19.1775 16.9248 14.7925C16.6463 10.8677 15.9671 7.01338 15.0422 3.19505C14.6682 1.64987 15.4053 0.383353 16.8153 0.0577221C18.0923 -0.238163 19.2973 0.627576 19.6509 2.10231C19.7777 2.63146 19.8888 3.1653 20.003 3.69915C20.2722 4.96097 20.5398 6.22435 20.8184 7.53313C33.6399 4.60402 46.391 4.80128 59.1328 7.74448C59.5459 5.82044 59.9262 3.99503 60.3315 2.17589C60.6288 0.840488 61.4802 0.0624187 62.6429 0.0123217C64.1234 -0.051865 65.2892 1.29293 65.0107 2.81149C64.5287 5.44002 63.9293 8.04976 63.5162 10.6892C62.8448 14.9741 62.7634 19.2824 63.1953 23.6064C63.7086 28.757 65.2313 33.6697 66.6179 38.6167C67.9919 43.52 68.9418 48.4827 68.7337 53.6051C68.452 60.5514 66.9246 67.2284 64.2924 73.6565C63.7024 75.0983 63.0154 76.4995 62.4317 77.9429C62.0404 78.9088 61.4645 79.6462 60.4614 80H59.3675C57.4833 78.8509 57.2001 77.9413 58.1656 75.8873C60.4739 70.9825 62.3127 65.9243 63.2079 60.5545C63.4363 59.1878 63.6382 57.8164 63.8698 56.3417C63.5944 56.42 63.4942 56.4356 63.4035 56.4748C56.5522 59.3929 49.704 62.3189 42.8449 65.2214C42.377 65.4202 42.3331 65.7036 42.3347 66.1216C42.3441 69.7411 42.294 73.3606 42.3629 76.9785C42.3911 78.4767 41.8762 79.4818 40.4646 80H39.5272C38.1188 79.4787 37.6055 78.4689 37.6336 76.977C37.6978 73.4138 37.6336 69.8491 37.6728 66.2844C37.679 65.6237 37.4505 65.3529 36.8653 65.1087C30.1861 62.3236 23.5195 59.5072 16.8481 56.7018C16.6697 56.6266 16.4804 56.5781 16.2597 56.5061C16.2597 56.8348 16.2206 57.0978 16.266 57.3468C16.6416 59.4399 16.9796 61.5424 17.4272 63.6198C18.3661 67.9814 20.0719 72.0737 21.9248 76.1112C22.1063 76.5057 22.2753 76.9284 22.3332 77.3542C22.5179 78.7022 21.6963 79.4411 20.6243 79.9984H19.5304L19.5289 79.9969ZM21.4569 12.1561C21.5132 12.9248 21.5555 13.5213 21.6024 14.1178C21.9264 18.3369 21.9138 22.5607 21.1251 26.7203C20.4584 30.2333 19.5367 33.6994 18.6822 37.1749C18.5523 37.7025 18.6353 37.8997 19.1345 38.0829C24.4381 40.0257 29.9154 41.1373 35.5382 41.5568C39.9138 41.8824 44.2737 41.7024 48.6195 41.1091C52.8276 40.5345 56.9231 39.5232 60.9137 38.0672C61.3972 37.8903 61.4739 37.6696 61.3205 37.1968C61.0216 36.2857 60.79 35.3526 60.5365 34.4258C59.3143 29.9531 58.3612 25.4287 58.2924 20.776C58.2548 18.2022 58.3925 15.6269 58.4661 13.0516C58.4755 12.6963 58.5381 12.4317 58.0404 12.3205C52.3425 11.0477 46.582 10.2791 40.7432 10.1523C36.5726 10.0615 32.4193 10.348 28.2957 10.9476C26.0171 11.2779 23.7573 11.746 21.46 12.1561H21.4569ZM17.0766 42.4116C16.7214 45.0949 16.4084 47.6906 16.014 50.2737C15.8982 51.0267 16.1674 51.3054 16.8074 51.5715C24.3004 54.701 31.7855 57.8493 39.2627 61.0164C39.787 61.2387 40.208 61.2434 40.7307 61.0179C45.571 58.9342 50.4223 56.8802 55.2689 54.8137C58.1797 53.5723 61.0889 52.3261 64.1672 51.0095C63.7399 48.1759 63.3111 45.3391 62.873 42.4335C47.571 47.7704 32.4287 47.761 17.0766 42.4132V42.4116Z" fill="#40B93C"/>
<path d="M0 17.8077C0.0563378 17.695 0.1205 17.5854 0.170578 17.4696C0.879495 15.8085 2.77777 15.378 4.06415 16.6336C6.03597 18.5607 7.98275 20.5145 9.91545 22.4824C10.9264 23.5125 10.9389 24.8683 9.92953 25.8984C7.98275 27.8882 6.02032 29.8623 4.02502 31.802C2.687 33.103 1.02503 32.6536 0 30.7766C0 30.3601 0 29.9437 0 29.5273C0.241001 29.1641 0.436618 28.7602 0.730826 28.4486C1.5133 27.6173 2.33176 26.8189 3.14709 26.0174C3.75116 25.424 4.37244 24.8479 5.02189 24.2311C3.7402 22.9552 2.55554 21.8264 1.43348 20.6382C0.89358 20.0668 0.474176 19.3811 0 18.747C0 18.4339 0 18.1224 0 17.8093V17.8077Z" fill="#40B93C"/>
<path d="M75.0091 24.1919C76.4363 25.6135 77.7931 26.9723 79.1562 28.3234C79.8557 29.0169 80.1781 29.831 79.9011 30.7985C79.4206 32.4799 77.3659 33.1217 76.0936 31.91C73.9856 29.9014 71.9402 27.8255 69.9183 25.7277C69.0654 24.8432 69.103 23.4953 69.9621 22.6123C71.9574 20.563 73.9809 18.5388 76.0278 16.5412C76.9167 15.6739 78.3173 15.7224 79.2109 16.5506C80.1076 17.3819 80.2187 18.7329 79.4425 19.7255C79.1718 20.0715 78.8416 20.3736 78.5302 20.6852C77.3909 21.8249 76.2469 22.9599 75.0106 24.1888L75.0091 24.1919Z" fill="#40B93C"/>
<path d="M42.3363 34.5276C42.3363 35.8301 41.3332 36.854 40.0405 36.8696C38.7056 36.8853 37.6555 35.8567 37.654 34.5338C37.6524 33.2172 38.7134 32.1699 40.0343 32.1855C41.3222 32.2012 42.3347 33.2313 42.3363 34.5276Z" fill="#40B93C"/>
</g>
<defs>
<clipPath id="clip0_44_837">
<rect width="80" height="80" fill="white"/>
</clipPath>
</defs>
</svg>
