<svg width="80" height="80" viewBox="0 0 80 80" fill="none" xmlns="http://www.w3.org/2000/svg">
<g clip-path="url(#clip0_44_850)">
<path d="M24.2192 80C22.8275 79.8482 21.4358 79.6963 20.044 79.5445C14.5428 78.9434 9.22321 77.5987 4.05233 75.6452C3.25078 75.3431 2.43986 75.0691 1.64301 74.7561C0.501753 74.3068 0.00391378 73.5773 0.00234827 72.372C-0.000782756 61.6211 -0.000782756 50.8703 0.00234827 40.1194C0.00234827 38.6386 0.962007 37.6884 2.42889 37.6602C5.765 37.5976 9.07762 37.668 12.2979 38.7372C15.6872 39.8611 18.6789 41.6174 21.2651 44.0735C21.4326 44.2331 21.608 44.3834 21.8021 44.5587C25.3809 41.5736 29.4684 39.7484 34.0507 39.1176C38.6016 38.4914 43.0054 39.1379 47.1571 40.9835C47.071 39.2944 46.8722 37.643 46.9348 35.9994C46.9912 34.4763 47.3857 32.9704 47.5266 31.4473C47.8272 28.1851 46.7861 25.3534 44.5787 22.9552C43.9103 22.2289 43.2543 21.1379 42.4512 20.9907C41.6684 20.8483 40.7025 21.6967 39.8227 22.1209C39.0039 22.5154 38.1961 22.9286 37.3789 23.3262C36.3535 23.8256 35.3829 23.7113 34.5751 22.913C31.6507 20.0202 28.7436 17.1118 25.849 14.1892C25.0505 13.3831 24.9269 12.4126 25.4278 11.3873C26.6599 8.8686 27.8559 6.32802 29.1537 3.8438C30.4703 1.32201 32.6057 0.0274613 35.469 0.0133731C38.0991 0.000850228 40.7276 0.0384188 43.3576 0.000850228C44.9795 -0.0226301 46.4166 0.440716 47.7552 1.32984C58.8812 8.72928 67.2646 18.4893 72.9521 30.5723C74.6882 34.2603 76.3993 37.9592 78.1183 41.6566C78.9996 43.5522 79.6133 45.5261 79.8513 47.6096C79.8716 47.7865 79.9499 47.9556 80 48.1293V52.0349C79.8622 52.7158 79.7526 53.403 79.5836 54.0761C77.6909 61.5992 73.1164 66.9027 66.0622 69.9817C61.7602 71.8586 57.3236 73.4255 52.9558 75.1521C47.3512 77.3655 41.5761 78.9042 35.577 79.5586C34.2385 79.7041 32.9016 79.8529 31.5646 80H24.2192ZM4.73176 42.3453C4.71141 42.5347 4.69106 42.6349 4.69106 42.7351C4.68949 51.9269 4.69263 61.1171 4.67541 70.3089C4.67541 70.7753 4.87266 70.9319 5.25151 71.0728C11.5433 73.4396 18.0245 74.8719 24.7547 75.2053C32.3724 75.5826 39.8337 74.7091 47.0288 72.2186C52.8384 70.2071 58.54 67.881 64.2666 65.6363C66.5961 64.7237 68.6062 63.2726 70.3283 61.4599C75.1782 56.3537 76.9191 49.6884 73.5031 42.9042C71.8343 39.5887 70.3439 36.1825 68.7784 32.8154C63.4932 21.4494 55.6563 12.267 45.2049 5.33715C44.6899 4.9959 44.0151 4.74075 43.4062 4.72666C40.8043 4.65935 38.1993 4.69223 35.5943 4.70162C34.5422 4.70475 33.7501 5.15401 33.2757 6.12453C32.3975 7.92156 31.5177 9.72015 30.6144 11.5047C30.4187 11.8929 30.45 12.1339 30.7678 12.447C32.6245 14.2722 34.464 16.1146 36.2909 17.9712C36.5978 18.2827 36.8388 18.3578 37.2302 18.1386C37.8877 17.7724 38.5719 17.4561 39.2466 17.1196C41.2207 16.1319 43.1917 15.1379 45.1721 14.1626C46.0409 13.7353 46.8973 13.8136 47.6737 14.3896C48.4346 14.9547 48.707 15.7515 48.5645 16.6656C48.4221 17.5798 47.8053 18.159 46.9536 18.5722C47.1446 18.7836 47.2761 18.9385 47.417 19.0826C51.5781 23.3121 53.0607 28.3041 51.9272 34.1554C50.9206 39.3555 52.4079 43.8262 56.3576 47.4061C57.5333 48.4721 58.7842 49.4536 60.0037 50.4711C61.2295 51.4933 61.4534 52.9522 60.5438 54.0323C59.6546 55.0889 58.2159 55.1296 57.0042 54.1246C54.6011 52.1304 52.1949 50.1361 49.7981 48.134C42.4715 42.0119 31.6773 42.1544 24.5245 48.4612C22.887 49.9044 21.5391 51.5731 20.4354 53.45C20.1583 53.9211 19.8797 54.3908 19.5885 54.8525C18.7979 56.1017 17.4782 56.4711 16.2993 55.7808C15.1142 55.0873 14.7917 53.6785 15.5729 52.3871C16.4856 50.8812 17.4422 49.402 18.4018 47.8773C14.6493 44.1549 10.0952 42.3563 4.72706 42.35L4.73176 42.3453Z" fill="#40B93C"/>
<path d="M29.6578 34.8708C29.3651 34.7158 28.7592 34.5154 28.3162 34.1303C27.4552 33.3837 26.6724 32.5446 25.8803 31.7213C24.9206 30.7226 24.9018 29.2949 25.8067 28.362C26.7303 27.4087 28.1988 27.4071 29.2226 28.3917C30.0649 29.201 30.8962 30.0228 31.6946 30.876C32.3975 31.6273 32.554 32.5258 32.1376 33.4698C31.7306 34.3902 30.9744 34.8207 29.6578 34.8708Z" fill="#40B93C"/>
<path d="M40.3237 34.8661C39.0399 34.8285 38.2822 34.4011 37.8674 33.4838C37.4556 32.5728 37.5715 31.679 38.2447 30.9464C39.1041 30.0103 40.0059 29.1071 40.942 28.2477C41.8751 27.3915 43.3201 27.4713 44.1827 28.3495C45.0265 29.2073 45.1126 30.613 44.2828 31.5318C43.414 32.493 42.4919 33.415 41.5244 34.2759C41.144 34.614 40.5788 34.7455 40.3268 34.8645L40.3237 34.8661Z" fill="#40B93C"/>
</g>
<defs>
<clipPath id="clip0_44_850">
<rect width="80" height="80" fill="white"/>
</clipPath>
</defs>
</svg>
