<svg width="94" height="30" viewBox="0 0 94 30" fill="none" xmlns="http://www.w3.org/2000/svg">
<path d="M60.8915 0.0800781C54.3371 0.0800781 48.4795 3.47787 48.4795 9.75413C48.4795 16.9526 58.8678 17.4498 58.8678 21.0666C58.8678 22.5894 57.1232 23.9524 54.1421 23.9524C49.9127 23.9524 46.7515 22.0479 46.7515 22.0479L45.3986 28.3824C45.3986 28.3824 49.0404 29.9912 53.8751 29.9912C61.0412 29.9912 66.6808 26.4271 66.6808 20.0427C66.6808 12.4358 56.249 11.9534 56.249 8.5972C56.249 7.40423 57.6813 6.0976 60.6531 6.0976C64.0066 6.0976 66.7418 7.48278 66.7418 7.48278L68.066 1.36546C68.066 1.36546 65.0886 0.0800781 60.8906 0.0800781H60.8915ZM0.922367 0.542112L0.763428 1.46525C0.763428 1.46525 3.52084 1.96979 6.00473 2.97703C9.20293 4.13119 9.43025 4.80391 9.96898 6.89045L15.8377 29.5144H23.7052L35.8253 0.542112H27.9763L20.1882 20.2404L17.0104 3.54256C16.7193 1.63159 15.2426 0.541187 13.4361 0.541187H0.923291L0.922367 0.542112ZM38.9819 0.542112L32.8248 29.5144H40.3098L46.4447 0.542112H38.9819ZM80.7275 0.542112C78.9228 0.542112 77.9664 1.50869 77.2651 3.19696L66.2992 29.5144H74.1482L75.6664 25.1278H85.2287L86.1518 29.5144H93.0777L87.0361 0.542112H80.7275ZM81.7486 8.36988L84.0754 19.2415H77.8426L81.7496 8.36988H81.7486Z" fill="#1434CB"/>
</svg>
